<svg width="19" height="19" viewBox="0 0 19 19" fill="none" xmlns="http://www.w3.org/2000/svg">
<path d="M17.8074 9.42065C17.8073 9.42056 17.8074 9.42074 17.8074 9.42065L9.57246 1.18573C9.27509 0.898515 8.80118 0.906739 8.51396 1.2041C8.23378 1.49424 8.23378 1.95418 8.51396 2.24423L15.4708 9.20115H0.808427C0.395009 9.20115 0.0598145 9.53634 0.0598145 9.94976C0.0598145 10.3632 0.395009 10.6984 0.808427 10.6984H15.4708L8.51387 17.6552C8.21651 17.9424 8.20829 18.4163 8.4955 18.7137C8.78272 19.0112 9.25673 19.0194 9.55409 18.7322C9.5603 18.7261 9.56643 18.72 9.57246 18.7137L17.8072 10.479C18.0995 10.1868 18.0995 9.71299 17.8074 9.42065Z" fill="black"/>
</svg>
