<svg width="115" height="115" viewBox="0 0 115 115" fill="none" xmlns="http://www.w3.org/2000/svg">
<rect x="114.682" y="0.751953" width="114.001" height="114.001" rx="57.0007" transform="rotate(90 114.682 0.751953)" fill="url(#paint0_linear_661_134545)"/>
<rect x="96.1543" y="19.2793" width="76.9466" height="76.9467" rx="38.4733" transform="rotate(90 96.1543 19.2793)" fill="white"/>
<path d="M58.6031 72.7666C58.6033 72.7664 58.603 72.7666 58.6031 72.7666L72.7103 58.6594C73.2023 58.15 73.1883 57.3381 72.6788 56.8461C72.1818 56.3661 71.3939 56.3661 70.897 56.8461L58.9791 68.7638L58.9791 43.6458C58.9791 42.9376 58.4049 42.3633 57.6967 42.3633C56.9885 42.3633 56.4143 42.9376 56.4143 43.6458L56.4143 68.7638L44.4965 56.8459C44.0045 56.3365 43.1927 56.3224 42.6832 56.8145C42.1737 57.3065 42.1596 58.1185 42.6516 58.6279C42.662 58.6386 42.6724 58.6491 42.6832 58.6594L56.7901 72.7663C57.2906 73.2671 58.1023 73.2671 58.6031 72.7666Z" fill="black"/>
<g opacity="0.34" clip-path="url(#clip0_661_134545)">
<path d="M20.4363 31.7003L15.9764 28.3748L17.9704 25.7006L18.4495 26.0579L16.8582 28.192L18.3651 29.3156L19.807 27.3819L20.2861 27.7391L18.8442 29.6729L20.839 31.1603L20.4363 31.7003Z" fill="white"/>
<path d="M21.2063 22.0807L21.6616 21.5842L24.3765 24.0736C24.6568 24.3306 24.8464 24.6262 24.9455 24.9603C25.0445 25.2918 25.0478 25.6352 24.9555 25.9904C24.8619 26.3443 24.6676 26.6821 24.3726 27.0038C24.0777 27.3255 23.7579 27.5483 23.4134 27.6721C23.0675 27.7948 22.7245 27.8218 22.3844 27.7532C22.0443 27.6821 21.734 27.518 21.4537 27.261L18.7389 24.7715L19.1942 24.275L21.869 26.7277C22.0692 26.9113 22.2878 27.0307 22.5247 27.0858C22.7603 27.1397 22.9975 27.1262 23.2363 27.0453C23.4749 26.962 23.6989 26.8061 23.9081 26.5779C24.1174 26.3497 24.2533 26.1131 24.3158 25.8681C24.3769 25.6219 24.3698 25.3845 24.2945 25.1557C24.2191 24.9244 24.0813 24.717 23.8811 24.5334L21.2063 22.0807Z" fill="white"/>
<path d="M22.9614 21.1934L22.5644 20.7467L25.683 17.9749L26.08 18.4216L24.7725 19.5837L28.0712 23.2953L27.5677 23.7428L24.2689 20.0313L22.9614 21.1934Z" fill="white"/>
<path d="M29.2371 15.3963L29.7836 15.0024L31.9372 17.9907C32.1596 18.2992 32.2854 18.6271 32.3146 18.9744C32.3443 19.3191 32.2779 19.656 32.1156 19.9851C31.9521 20.3127 31.6933 20.6041 31.3393 20.8593C30.9852 21.1144 30.6269 21.2677 30.2644 21.3192C29.9008 21.3691 29.5595 21.326 29.2404 21.1899C28.9217 21.0513 28.6512 20.8277 28.4289 20.5192L26.2752 17.5309L26.8218 17.137L28.9436 20.0812C29.1025 20.3016 29.2923 20.4628 29.5131 20.5648C29.7329 20.6653 29.9679 20.7002 30.2181 20.6695C30.4687 20.6362 30.7196 20.5291 30.9708 20.348C31.222 20.1669 31.4031 19.9628 31.5139 19.7356C31.6237 19.5069 31.6649 19.273 31.6375 19.0337C31.6106 18.792 31.5178 18.5609 31.3589 18.3405L29.2371 15.3963Z" fill="white"/>
<path d="M33.8571 19.0327L31.0999 14.2008L32.7326 13.2691C33.1101 13.0537 33.4567 12.9414 33.7726 12.9322C34.0875 12.9214 34.3669 12.9944 34.6107 13.1514C34.8545 13.3083 35.0577 13.5291 35.2201 13.8138C35.3826 14.0985 35.4685 14.3841 35.4777 14.6708C35.487 14.9574 35.4072 15.2323 35.2383 15.4954C35.0686 15.757 34.7965 15.9946 34.4222 16.2082L33.101 16.9621L32.7994 16.4336L34.1017 15.6905C34.3597 15.5433 34.5458 15.3871 34.66 15.2218C34.7758 15.0557 34.8296 14.8832 34.8214 14.7044C34.8138 14.5231 34.7549 14.3357 34.6445 14.1423C34.5341 13.9488 34.4014 13.8004 34.2465 13.697C34.0916 13.5935 33.9122 13.5478 33.7085 13.5598C33.5039 13.5703 33.271 13.65 33.0099 13.799L31.9812 14.3859L34.4422 18.6988L33.8571 19.0327ZM34.8929 15.5643L37.3206 17.0563L36.6411 17.4441L34.2323 15.9412L34.8929 15.5643Z" fill="white"/>
<path d="M37.7073 16.9191L35.41 11.8523L38.4678 10.4659L38.7146 11.0101L36.2703 12.1184L37.0466 13.8304L39.3325 12.7939L39.5793 13.3382L37.2933 14.3747L38.0741 16.0966L40.558 14.9704L40.8047 15.5147L37.7073 16.9191Z" fill="white"/>
<path d="M44.6304 14.2221L42.9819 14.7014L41.4288 9.35932L43.1504 8.85884C43.6686 8.70819 44.1431 8.68622 44.574 8.79294C45.0043 8.89791 45.3756 9.12095 45.6879 9.46204C45.9996 9.8014 46.2359 10.2476 46.3967 10.8006C46.5584 11.357 46.5986 11.8649 46.5171 12.3242C46.4352 12.7818 46.236 13.1735 45.9196 13.4994C45.6027 13.8235 45.1729 14.0644 44.6304 14.2221ZM43.4619 13.9395L44.4218 13.6604C44.8635 13.532 45.2048 13.3404 45.4457 13.0855C45.6865 12.8307 45.8325 12.5252 45.8836 12.169C45.9347 11.8128 45.897 11.4173 45.7706 10.9825C45.6453 10.5513 45.4669 10.2005 45.2356 9.93017C45.0037 9.65811 44.7235 9.47931 44.395 9.39376C44.066 9.30647 43.6928 9.32349 43.2755 9.44482L42.2426 9.74512L43.4619 13.9395Z" fill="white"/>
<path d="M52.4248 9.75883C52.5184 10.3381 52.4947 10.8555 52.3537 11.3112C52.2127 11.767 51.9784 12.1387 51.6506 12.4265C51.3229 12.7142 50.9249 12.896 50.4565 12.9717C49.9881 13.0474 49.553 13.0003 49.1514 12.8304C48.7497 12.6605 48.4102 12.3815 48.1328 11.9934C47.8555 11.6053 47.67 11.1216 47.5764 10.5424C47.4828 9.96313 47.5065 9.44566 47.6474 8.98995C47.7884 8.53424 48.0228 8.16249 48.3505 7.87472C48.6782 7.58695 49.0763 7.40522 49.5447 7.32953C50.0131 7.25383 50.4481 7.30093 50.8498 7.47083C51.2515 7.64072 51.591 7.91972 51.8683 8.30783C52.1457 8.69593 52.3312 9.1796 52.4248 9.75883ZM51.7812 9.86284C51.7043 9.3873 51.5599 8.99881 51.3479 8.69736C51.1377 8.39563 50.8841 8.18255 50.587 8.05812C50.2917 7.93341 49.9777 7.89793 49.6452 7.95166C49.3127 8.0054 49.025 8.13811 48.7822 8.34978C48.5412 8.56117 48.3676 8.8433 48.2614 9.19617C48.1569 9.54875 48.1431 9.96281 48.22 10.4384C48.2968 10.9139 48.4403 11.3025 48.6505 11.6043C48.8625 11.9057 49.1162 12.1188 49.4115 12.2435C49.7086 12.3679 50.0234 12.4033 50.3559 12.3495C50.6885 12.2958 50.9752 12.1632 51.2162 11.9518C51.459 11.7402 51.6326 11.458 51.7371 11.1055C51.8433 10.7526 51.858 10.3384 51.7812 9.86284Z" fill="white"/>
<path d="M58.0832 8.41718L57.4103 8.44892C57.3614 8.25724 57.2837 8.09048 57.1773 7.94865C57.0727 7.80674 56.9476 7.68936 56.8018 7.59652C56.6577 7.50179 56.4995 7.43311 56.327 7.39048C56.1546 7.34784 55.9761 7.33088 55.7916 7.33958C55.4552 7.35545 55.1544 7.45484 54.8892 7.63776C54.6259 7.8206 54.4216 8.08133 54.2762 8.41996C54.1326 8.7585 54.0722 9.16836 54.0948 9.64954C54.1175 10.1307 54.2163 10.5331 54.3911 10.8566C54.5677 11.18 54.7957 11.4204 55.075 11.5776C55.3562 11.7348 55.665 11.8054 56.0015 11.7896C56.186 11.7809 56.3621 11.7472 56.5297 11.6885C56.6974 11.6298 56.8485 11.5475 56.9831 11.4414C57.1194 11.3335 57.2329 11.2039 57.3237 11.0528C57.4162 10.8998 57.4778 10.7264 57.5086 10.5328L58.1815 10.5011C58.1443 10.7875 58.064 11.046 57.9407 11.2766C57.8174 11.5072 57.66 11.7059 57.4684 11.8727C57.2768 12.0376 57.059 12.1666 56.815 12.2597C56.5728 12.3527 56.3115 12.4058 56.0312 12.4191C55.5572 12.4414 55.1303 12.3455 54.7503 12.1314C54.3704 11.9172 54.0645 11.6017 53.8328 11.1848C53.601 10.7679 53.4713 10.2663 53.4436 9.68025C53.416 9.09415 53.4979 8.58266 53.6894 8.14577C53.8809 7.70888 54.1558 7.36596 54.5139 7.11702C54.872 6.86807 55.288 6.73242 55.7619 6.71007C56.0423 6.69685 56.3074 6.72514 56.5573 6.79494C56.8089 6.86465 57.038 6.97351 57.2444 7.1215C57.4507 7.26769 57.6261 7.44978 57.7705 7.66777C57.9149 7.88396 58.0191 8.13376 58.0832 8.41718Z" fill="white"/>
<path d="M58.7122 7.33744L58.7439 6.74067L62.9104 6.96194L62.8787 7.55871L61.1318 7.46594L60.8685 12.4246L60.1958 12.3888L60.4591 7.43021L58.7122 7.33744Z" fill="white"/>
<path d="M67.6222 10.4914C67.5322 11.0712 67.3498 11.556 67.0749 11.9459C66.8 12.3357 66.4622 12.6169 66.0616 12.7893C65.661 12.9617 65.2263 13.0115 64.7574 12.9388C64.2886 12.866 63.8894 12.6868 63.5599 12.4011C63.2303 12.1154 62.9937 11.7451 62.8498 11.2903C62.706 10.8355 62.679 10.3182 62.769 9.73836C62.859 9.15855 63.0414 8.67373 63.3163 8.28389C63.5912 7.89404 63.929 7.61292 64.3296 7.4405C64.7302 7.26809 65.1649 7.21826 65.6338 7.29101C66.1026 7.36376 66.5018 7.54298 66.8313 7.82869C67.1609 8.11439 67.3975 8.48466 67.5414 8.93947C67.6852 9.39429 67.7122 9.9116 67.6222 10.4914ZM66.978 10.3914C67.0518 9.91543 67.0345 9.50133 66.9261 9.14913C66.8194 8.79721 66.644 8.51618 66.3999 8.30603C66.1576 8.09617 65.87 7.96541 65.5371 7.91376C65.2043 7.86211 64.8897 7.89943 64.5934 8.02572C64.2988 8.15229 64.0465 8.36695 63.8365 8.66973C63.6282 8.97277 63.4871 9.36231 63.4132 9.83832C63.3394 10.3143 63.3558 10.7283 63.4624 11.0802C63.5709 11.4324 63.7463 11.7135 63.9886 11.9233C64.2327 12.1335 64.5212 12.2644 64.8541 12.316C65.1869 12.3677 65.5006 12.3302 65.7951 12.2036C66.0915 12.0773 66.3438 11.8627 66.5521 11.5596C66.7621 11.2569 66.9041 10.8675 66.978 10.3914Z" fill="white"/>
<path d="M68.1009 13.4879L69.5557 8.11825L71.3701 8.60984C71.7896 8.7235 72.1145 8.88846 72.3449 9.10472C72.5757 9.31924 72.7221 9.56812 72.7842 9.85137C72.8463 10.1346 72.8345 10.4344 72.7488 10.7508C72.6631 11.0672 72.5224 11.3302 72.3267 11.5399C72.1311 11.7495 71.8806 11.888 71.5753 11.9554C71.2704 12.021 70.91 11.9975 70.494 11.8848L69.0258 11.487L69.1849 10.8997L70.6322 11.2918C70.9188 11.3695 71.1609 11.39 71.3584 11.3535C71.5577 11.3174 71.7175 11.2331 71.8378 11.1006C71.9604 10.9669 72.0508 10.7925 72.109 10.5775C72.1673 10.3625 72.178 10.1637 72.1412 9.98109C72.1043 9.7985 72.0095 9.63959 71.8566 9.50436C71.7042 9.36738 71.483 9.25958 71.1928 9.18097L70.0497 8.87124L68.7511 13.664L68.1009 13.4879ZM71.2819 11.7605L71.9498 14.5307L71.1947 14.3261L70.5478 11.5616L71.2819 11.7605Z" fill="white"/>
<path d="M76.6343 11.8654C76.7002 11.5961 76.6513 11.3497 76.4875 11.126C76.3237 10.9023 76.084 10.7314 75.7685 10.6134C75.5379 10.5271 75.3221 10.4889 75.1211 10.4989C74.9219 10.5094 74.7495 10.5619 74.604 10.6563C74.4602 10.7514 74.3571 10.882 74.295 11.0483C74.2429 11.1874 74.2313 11.3193 74.26 11.4441C74.291 11.5679 74.3468 11.6825 74.4272 11.788C74.5082 11.8918 74.5985 11.9865 74.698 12.072C74.7981 12.1559 74.8917 12.2286 74.9789 12.2902L75.4548 12.6306C75.5771 12.717 75.7097 12.8227 75.8524 12.9476C75.9969 13.0732 76.1251 13.2188 76.2372 13.3845C76.3516 13.5491 76.4274 13.734 76.4646 13.9394C76.5019 14.1447 76.4748 14.3695 76.3835 14.6138C76.2781 14.8954 76.1092 15.1222 75.8766 15.2943C75.6457 15.467 75.3644 15.5677 75.0327 15.5963C74.7027 15.6256 74.3376 15.5654 73.9373 15.4157C73.5641 15.2761 73.2636 15.095 73.0355 14.8724C72.8092 14.6505 72.6583 14.4026 72.5828 14.1288C72.5091 13.8557 72.5153 13.5728 72.6015 13.2802L73.2529 13.5239C73.1962 13.727 73.2015 13.9146 73.2686 14.0866C73.338 14.2576 73.4501 14.4078 73.6047 14.5372C73.7616 14.6655 73.9436 14.7684 74.1505 14.8458C74.3913 14.9359 74.6222 14.9778 74.843 14.9714C75.0645 14.9634 75.2576 14.91 75.4222 14.811C75.5874 14.7105 75.7056 14.5652 75.7767 14.3752C75.8414 14.2022 75.8457 14.0433 75.7896 13.8986C75.7336 13.7539 75.6393 13.6181 75.507 13.4912C75.3746 13.3644 75.2264 13.2413 75.0622 13.1218L74.4896 12.6988C74.1263 12.4295 73.8665 12.1419 73.7103 11.8359C73.554 11.53 73.5416 11.2015 73.6729 10.8504C73.7821 10.5586 73.9561 10.3337 74.1951 10.1756C74.4364 10.0165 74.7135 9.9268 75.0266 9.90662C75.3419 9.88538 75.6658 9.93695 75.9983 10.0613C76.3341 10.1869 76.6101 10.3588 76.8263 10.577C77.0431 10.7934 77.1891 11.0337 77.2643 11.2977C77.3413 11.5624 77.3348 11.8277 77.2449 12.0938L76.6343 11.8654Z" fill="white"/>
<path d="M79.6345 15.1994L80.2231 14.1583L79.031 14.2624L79.0095 13.7372L80.2099 13.7353L79.5195 12.7533L79.961 12.4681L80.5632 13.5023L81.0746 12.4211L81.5377 12.6612L80.949 13.7023L82.1412 13.5982L82.1627 14.1234L80.9623 14.1253L81.6527 15.1073L81.2111 15.3925L80.609 14.3583L80.0976 15.4394L79.6345 15.1994Z" fill="white"/>
<path d="M82.0922 19.3961L85.22 14.7955L87.9786 16.6709L87.6426 17.1651L85.4411 15.6684L84.3843 17.223L86.3791 18.5792L86.0431 19.0734L84.0483 17.7172L82.6493 19.7749L82.0922 19.3961Z" fill="white"/>
<path d="M91.7277 19.7386L92.2436 20.1719L89.875 22.9927C89.6304 23.284 89.3434 23.4864 89.014 23.5999C88.6871 23.7132 88.3442 23.7315 87.9853 23.6548C87.6276 23.5767 87.2816 23.3974 86.9474 23.1167C86.6132 22.8361 86.3767 22.5263 86.2379 22.1875C86.1003 21.8473 86.0583 21.5058 86.112 21.1631C86.1682 20.8201 86.3186 20.5031 86.5632 20.2118L88.9318 17.3909L89.4477 17.8242L87.114 20.6034C86.9393 20.8114 86.8296 21.035 86.7849 21.2741C86.7414 21.5119 86.7652 21.7482 86.8563 21.9832C86.9501 22.218 87.1155 22.435 87.3527 22.6341C87.5898 22.8332 87.8321 22.9586 88.0795 23.0104C88.3282 23.0607 88.5651 23.0432 88.7903 22.9581C89.0181 22.8727 89.2193 22.7259 89.394 22.5179L91.7277 19.7386Z" fill="white"/>
<path d="M92.6932 21.4565L93.1222 21.0405L96.0269 24.0358L95.5979 24.4518L94.38 23.196L90.8153 26.6528L90.3463 26.1692L93.9111 22.7123L92.6932 21.4565Z" fill="white"/>
<path d="M98.757 27.4625L99.1745 27.9913L96.2834 30.2737C95.9849 30.5094 95.6628 30.6494 95.3172 30.6938C94.9741 30.7386 94.6347 30.687 94.2988 30.5392C93.9643 30.3903 93.6618 30.1445 93.3914 29.802C93.121 29.4594 92.9521 29.1082 92.8849 28.7483C92.819 28.3872 92.8471 28.0443 92.9691 27.7196C93.0937 27.3951 93.3052 27.1151 93.6037 26.8794L96.4948 24.597L96.9122 25.1258L94.0638 27.3745C93.8506 27.5429 93.6979 27.7396 93.6056 27.9647C93.5148 28.1887 93.4902 28.4249 93.5319 28.6735C93.5761 28.9224 93.6942 29.1684 93.886 29.4114C94.0779 29.6545 94.2898 29.8264 94.5216 29.9272C94.7549 30.0268 94.9904 30.0578 95.2282 30.02C95.4686 29.9825 95.6954 29.8796 95.9086 29.7113L98.757 27.4625Z" fill="white"/>
<path d="M95.3329 32.2533L100.04 29.288L101.042 30.8784C101.274 31.2462 101.401 31.5876 101.424 31.9027C101.448 32.2169 101.388 32.4992 101.241 32.7496C101.095 33.0001 100.884 33.2127 100.606 33.3874C100.329 33.5621 100.047 33.6603 99.7613 33.6821C99.4754 33.7038 99.1973 33.6361 98.927 33.4789C98.6583 33.3207 98.409 33.0593 98.1793 32.6946L97.3685 31.4076L97.8833 31.0832L98.6826 32.3519C98.8409 32.6032 99.005 32.7823 99.1751 32.8892C99.3462 32.9976 99.5208 33.0438 99.6991 33.0278C99.8799 33.0124 100.064 32.9453 100.253 32.8266C100.441 32.7079 100.584 32.5689 100.68 32.4096C100.777 32.2503 100.815 32.0691 100.794 31.8661C100.775 31.6621 100.685 31.433 100.525 31.1786L99.8934 30.1765L95.6919 32.8233L95.3329 32.2533ZM98.8431 33.1368L97.4584 35.6273L97.0414 34.9654L98.4377 32.4933L98.8431 33.1368Z" fill="white"/>
<path d="M97.6169 36.0017L102.578 33.4847L104.097 36.4789L103.564 36.7493L102.35 34.3559L100.674 35.2063L101.809 37.4447L101.276 37.7151L100.141 35.4767L98.4546 36.3321L99.6886 38.7643L99.1556 39.0347L97.6169 36.0017Z" fill="white"/>
<path d="M100.608 42.7985L100.056 41.1728L105.325 39.3854L105.901 41.0832C106.074 41.5943 106.117 42.0674 106.029 42.5025C105.943 42.9371 105.737 43.3178 105.41 43.6449C105.085 43.9713 104.649 44.227 104.104 44.412C103.555 44.5982 103.05 44.6608 102.587 44.5997C102.126 44.538 101.726 44.3563 101.387 44.0546C101.049 43.7523 100.789 43.3336 100.608 42.7985ZM100.839 41.6187L101.16 42.5654C101.308 43.001 101.514 43.3335 101.779 43.5628C102.045 43.7922 102.356 43.9246 102.714 43.9599C103.072 43.9952 103.466 43.9401 103.895 43.7947C104.32 43.6504 104.662 43.4567 104.922 43.2137C105.184 42.97 105.35 42.6822 105.421 42.3503C105.494 42.0177 105.46 41.6457 105.321 41.2341L104.975 40.2154L100.839 41.6187Z" fill="white"/>
<path d="M105.409 50.3699C104.834 50.4891 104.316 50.4884 103.855 50.3677C103.393 50.2471 103.012 50.0294 102.71 49.7148C102.408 49.4002 102.208 49.0105 102.112 48.546C102.016 48.0814 102.043 47.6447 102.195 47.2359C102.347 46.8271 102.611 46.4755 102.986 46.1812C103.362 45.887 103.837 45.6802 104.411 45.561C104.986 45.4419 105.504 45.4426 105.965 45.5632C106.427 45.6839 106.809 45.9015 107.111 46.2162C107.413 46.5308 107.612 46.9204 107.708 47.385C107.805 47.8496 107.777 48.2863 107.625 48.6951C107.473 49.1039 107.209 49.4555 106.834 49.7497C106.458 50.044 105.983 50.2508 105.409 50.3699ZM105.276 49.7316C105.748 49.6337 106.13 49.4722 106.422 49.2471C106.714 49.0238 106.915 48.7609 107.026 48.4586C107.138 48.158 107.159 47.8428 107.091 47.513C107.023 47.1832 106.877 46.9017 106.655 46.6685C106.433 46.4371 106.144 46.2762 105.786 46.1857C105.43 46.097 105.015 46.1015 104.544 46.1994C104.072 46.2972 103.69 46.4578 103.398 46.6812C103.106 46.9063 102.905 47.1692 102.793 47.4697C102.682 47.7721 102.661 48.0881 102.729 48.418C102.797 48.7478 102.943 49.0284 103.164 49.2598C103.387 49.4929 103.676 49.6539 104.033 49.7426C104.39 49.8331 104.805 49.8294 105.276 49.7316Z" fill="white"/>
<path d="M106.995 55.9794L106.934 55.3085C107.123 55.2513 107.287 55.1665 107.424 55.054C107.561 54.9434 107.673 54.8132 107.759 54.6635C107.848 54.5155 107.909 54.3544 107.944 54.1803C107.98 54.0061 107.989 53.8271 107.972 53.6431C107.942 53.3077 107.829 53.0115 107.635 52.7546C107.441 52.4994 107.171 52.3066 106.827 52.1761C106.482 52.0473 106.07 52.0048 105.591 52.0483C105.111 52.0919 104.713 52.208 104.398 52.3967C104.082 52.5872 103.852 52.8254 103.707 53.1114C103.562 53.3991 103.505 53.7107 103.535 54.0461C103.552 54.2301 103.593 54.4045 103.659 54.5695C103.725 54.7344 103.814 54.8818 103.926 55.0117C104.04 55.1432 104.174 55.251 104.329 55.3351C104.486 55.4209 104.662 55.4749 104.856 55.4972L104.917 56.1681C104.63 56.1434 104.368 56.0744 104.132 55.9613C103.896 55.8481 103.691 55.6995 103.516 55.5153C103.343 55.331 103.205 55.119 103.101 54.8793C102.998 54.6414 102.933 54.3827 102.908 54.1031C102.865 53.6306 102.942 53.1999 103.14 52.811C103.337 52.4221 103.639 52.1029 104.045 51.8532C104.452 51.6035 104.947 51.4521 105.532 51.3991C106.116 51.346 106.631 51.4056 107.075 51.578C107.52 51.7503 107.875 52.01 108.139 52.3569C108.403 52.7039 108.557 53.1136 108.6 53.5861C108.625 53.8657 108.608 54.1318 108.549 54.3844C108.491 54.6389 108.392 54.8724 108.253 55.0851C108.116 55.2975 107.942 55.4807 107.73 55.6344C107.52 55.7881 107.275 55.903 106.995 55.9794Z" fill="white"/>
<path d="M108.116 56.5856L108.714 56.5953L108.646 60.7672L108.048 60.7575L108.077 59.0084L103.112 58.9278L103.123 58.2542L108.088 58.3348L108.116 56.5856Z" fill="white"/>
<path d="M105.334 65.6115C104.75 65.5469 104.258 65.3858 103.857 65.1282C103.455 64.8705 103.16 64.5453 102.97 64.1526C102.78 63.7599 102.711 63.3278 102.764 62.8562C102.816 62.3846 102.977 61.978 103.249 61.6363C103.52 61.2947 103.879 61.042 104.327 60.8785C104.775 60.715 105.291 60.6655 105.874 60.7301C106.457 60.7947 106.95 60.9558 107.351 61.2134C107.753 61.471 108.048 61.7962 108.238 62.1889C108.428 62.5816 108.496 63.0138 108.444 63.4854C108.392 63.9569 108.23 64.3636 107.959 64.7052C107.688 65.0469 107.329 65.2995 106.88 65.4631C106.432 65.6266 105.917 65.6761 105.334 65.6115ZM105.405 64.9635C105.884 65.0165 106.297 64.9812 106.644 64.8575C106.991 64.7356 107.264 64.5481 107.464 64.295C107.663 64.0438 107.781 63.7508 107.818 63.416C107.855 63.0812 107.804 62.7685 107.665 62.478C107.525 62.1893 107.3 61.9466 106.988 61.7499C106.677 61.555 106.281 61.4311 105.802 61.378C105.324 61.325 104.911 61.3595 104.564 61.4814C104.217 61.6051 103.944 61.7926 103.745 62.0438C103.545 62.2969 103.427 62.5908 103.39 62.9256C103.353 63.2604 103.404 63.5721 103.543 63.8609C103.682 64.1514 103.908 64.3941 104.22 64.589C104.531 64.7856 104.927 64.9105 105.405 64.9635Z" fill="white"/>
<path d="M102.362 66.2187L107.79 67.436L107.379 69.2702C107.284 69.6943 107.134 70.0262 106.928 70.2658C106.723 70.5058 106.481 70.6631 106.201 70.7376C105.921 70.8121 105.621 70.8135 105.301 70.7417C104.981 70.67 104.712 70.541 104.494 70.3548C104.276 70.1685 104.127 69.9244 104.046 69.6223C103.967 69.3207 103.975 68.9596 104.069 68.539L104.402 67.0547L104.995 67.1878L104.667 68.6509C104.602 68.9407 104.592 69.1835 104.638 69.3792C104.682 69.5767 104.774 69.7327 104.911 69.847C105.05 69.9636 105.229 70.0462 105.446 70.095C105.663 70.1437 105.862 70.1457 106.043 70.1009C106.224 70.056 106.378 69.9543 106.507 69.7956C106.637 69.6374 106.735 69.4116 106.801 69.1182L107.06 67.9626L102.215 66.876L102.362 66.2187ZM104.228 69.3207L101.489 70.1097L101.661 69.3463L104.394 68.5785L104.228 69.3207Z" fill="white"/>
<path d="M104.364 74.6755C104.636 74.7295 104.88 74.6698 105.096 74.4963C105.313 74.3228 105.473 74.0759 105.577 73.7555C105.653 73.5212 105.682 73.304 105.663 73.1037C105.643 72.9051 105.583 72.7352 105.483 72.594C105.381 72.4544 105.246 72.3573 105.078 72.3024C104.936 72.2566 104.804 72.2507 104.681 72.2849C104.558 72.3214 104.446 72.3821 104.344 72.4671C104.244 72.5526 104.154 72.6469 104.073 72.7501C103.993 72.8538 103.925 72.9505 103.867 73.0403L103.548 73.5307C103.467 73.6568 103.367 73.7938 103.249 73.9419C103.129 74.0918 102.99 74.2263 102.829 74.3455C102.67 74.467 102.488 74.5509 102.285 74.5971C102.081 74.6434 101.855 74.6262 101.607 74.5457C101.321 74.4529 101.087 74.294 100.905 74.0692C100.723 73.8462 100.61 73.5696 100.566 73.2395C100.523 72.9111 100.567 72.5436 100.699 72.1372C100.822 71.7582 100.989 71.45 101.202 71.2124C101.414 70.9765 101.655 70.8148 101.925 70.7274C102.194 70.6417 102.477 70.6355 102.773 70.7088L102.559 71.3702C102.353 71.3225 102.166 71.336 101.997 71.4106C101.829 71.4875 101.684 71.6061 101.562 71.7662C101.44 71.9287 101.346 72.115 101.277 72.3251C101.198 72.5697 101.166 72.8021 101.182 73.0225C101.2 73.2434 101.262 73.4339 101.368 73.594C101.476 73.7547 101.626 73.8663 101.819 73.929C101.995 73.986 102.154 73.9834 102.296 73.921C102.438 73.8586 102.569 73.7585 102.69 73.6207C102.811 73.4829 102.928 73.3294 103.04 73.1601L103.437 72.5695C103.69 72.1947 103.966 71.9225 104.265 71.753C104.564 71.5834 104.891 71.5565 105.248 71.6723C105.544 71.7685 105.777 71.9325 105.945 72.1643C106.115 72.3983 106.216 72.6713 106.25 72.9831C106.285 73.2973 106.248 73.6231 106.138 73.9607C106.028 74.3018 105.868 74.5851 105.66 74.8106C105.453 75.0367 105.219 75.1931 104.959 75.2799C104.698 75.3684 104.433 75.3736 104.163 75.2956L104.364 74.6755Z" fill="white"/>
<path d="M100.368 79.4551L101.413 80.0379L101.302 78.8464L101.827 78.8219L101.835 80.0223L102.814 79.3264L103.101 79.7664L102.07 80.3743L103.154 80.8797L102.917 81.3441L101.873 80.7613L101.983 81.9528L101.458 81.9773L101.45 80.7769L100.472 81.4727L100.184 81.0328L101.215 80.4249L100.131 79.9195L100.368 79.4551Z" fill="white"/>
<path d="M95.2337 83.3852L99.731 86.6599L97.7675 89.3565L97.2844 89.0047L98.8514 86.8527L97.3318 85.7462L95.9119 87.6962L95.4288 87.3444L96.8487 85.3944L94.8372 83.9298L95.2337 83.3852Z" fill="white"/>
<path d="M94.5812 92.9993L94.1317 93.5011L91.3883 91.0431C91.1051 90.7893 90.912 90.4959 90.8091 90.163C90.7063 89.8326 90.699 89.4893 90.7872 89.1331C90.8767 88.7781 91.0671 88.4381 91.3584 88.113C91.6496 87.788 91.9668 87.5615 92.3099 87.4337C92.6543 87.3071 92.997 87.2761 93.3378 87.3407C93.6788 87.408 93.9909 87.5685 94.2741 87.8222L97.0175 90.2803L96.5679 90.782L93.865 88.3602C93.6627 88.179 93.4428 88.0621 93.2052 88.0098C92.969 87.9586 92.732 87.9748 92.4942 88.0584C92.2565 88.1445 92.0344 88.3029 91.8277 88.5335C91.6211 88.7642 91.488 89.0023 91.4283 89.248C91.3701 89.4948 91.3799 89.7322 91.4578 89.9601C91.5358 90.1905 91.676 90.3963 91.8783 90.5776L94.5812 92.9993Z" fill="white"/>
<path d="M92.8402 93.9044L93.2423 94.3465L90.1558 97.154L89.7537 96.712L91.0478 95.5348L87.7065 91.8615L88.2049 91.4082L91.5461 95.0815L92.8402 93.9044Z" fill="white"/>
<path d="M86.6385 99.7716L86.0966 100.172L83.9082 97.2089C83.6823 96.903 83.5527 96.5766 83.5193 96.2298C83.4856 95.8854 83.5481 95.5478 83.7066 95.2168C83.8662 94.8873 84.1215 94.5929 84.4726 94.3336C84.8237 94.0743 85.1801 93.9168 85.542 93.8611C85.905 93.8069 86.2468 93.846 86.5674 93.9784C86.8877 94.1133 87.1608 94.3337 87.3868 94.6396L89.5752 97.6025L89.0333 98.0027L86.8772 95.0836C86.7158 94.8651 86.5241 94.7061 86.3021 94.6067C86.0811 94.5087 85.8457 94.4766 85.5959 94.5102C85.3457 94.5464 85.0961 94.6565 84.847 94.8405C84.5979 95.0245 84.4193 95.2307 84.3111 95.4592C84.2041 95.6891 84.1656 95.9235 84.1957 96.1625C84.2254 96.4039 84.321 96.6339 84.4824 96.8524L86.6385 99.7716Z" fill="white"/>
<path d="M81.954 96.1974L84.7649 100.998L83.1428 101.948C82.7677 102.168 82.4223 102.284 82.1066 102.297C81.7919 102.311 81.5117 102.241 81.2661 102.087C81.0205 101.933 80.8149 101.714 80.6493 101.431C80.4837 101.148 80.3946 100.864 80.3822 100.577C80.3697 100.291 80.4464 100.015 80.6123 99.7499C80.7792 99.4864 81.0485 99.2458 81.4205 99.028L82.7332 98.2594L83.0406 98.7845L81.7467 99.5421C81.4904 99.6922 81.3061 99.8505 81.1937 100.017C81.0798 100.184 81.0279 100.358 81.0381 100.536C81.0477 100.717 81.1087 100.904 81.2213 101.096C81.3338 101.289 81.4681 101.435 81.6242 101.537C81.7803 101.639 81.9601 101.683 82.1637 101.668C82.3682 101.656 82.6002 101.573 82.8596 101.421L83.8816 100.823L81.3726 96.5378L81.954 96.1974ZM80.9569 99.6772L78.5127 98.2123L79.1879 97.817L81.6133 99.2929L80.9569 99.6772Z" fill="white"/>
<path d="M78.1407 98.3566L80.4962 103.397L77.4545 104.818L77.2015 104.277L79.6329 103.14L78.8369 101.437L76.5631 102.5L76.31 101.959L78.5839 100.896L77.7834 99.1833L75.3127 100.338L75.0596 99.7966L78.1407 98.3566Z" fill="white"/>
<path d="M71.2358 101.131L72.8789 100.633L74.4915 105.957L72.7756 106.477C72.2592 106.633 71.7849 106.661 71.3529 106.559C70.9214 106.459 70.5477 106.24 70.2316 105.902C69.9161 105.566 69.6748 105.123 69.5079 104.572C69.3399 104.017 69.2941 103.51 69.3704 103.049C69.4473 102.591 69.6421 102.197 69.9548 101.868C70.2681 101.54 70.6951 101.294 71.2358 101.131ZM72.4074 101.4L71.4507 101.69C71.0104 101.823 70.6713 102.019 70.4333 102.276C70.1953 102.534 70.0528 102.841 70.0057 103.198C69.9586 103.554 70.0006 103.949 70.1318 104.383C70.262 104.812 70.4443 105.161 70.6787 105.429C70.9135 105.698 71.1957 105.874 71.5251 105.956C71.8551 106.04 72.228 106.018 72.644 105.892L73.6735 105.581L72.4074 101.4Z" fill="white"/>
<path d="M63.5244 105.684C63.424 105.106 63.4415 104.588 63.5771 104.131C63.7126 103.673 63.9426 103.299 64.2668 103.007C64.5911 102.715 64.987 102.529 65.4545 102.448C65.9219 102.367 66.3575 102.408 66.7611 102.574C67.1648 102.739 67.5076 103.014 67.7896 103.398C68.0715 103.783 68.2627 104.265 68.3632 104.843C68.4637 105.421 68.4461 105.939 68.3105 106.396C68.175 106.853 67.9451 107.228 67.6208 107.519C67.2965 107.811 66.9006 107.997 66.4332 108.079C65.9657 108.16 65.5301 108.118 65.1265 107.953C64.7228 107.788 64.38 107.513 64.0981 107.128C63.8161 106.743 63.6249 106.262 63.5244 105.684ZM64.1667 105.572C64.2492 106.047 64.3983 106.433 64.6138 106.732C64.8276 107.032 65.0837 107.242 65.3823 107.363C65.6791 107.484 65.9934 107.515 66.3252 107.458C66.6571 107.4 66.9432 107.264 67.1834 107.049C67.4219 106.835 67.5922 106.551 67.6942 106.197C67.7945 105.843 67.8034 105.429 67.7209 104.954C67.6384 104.48 67.4903 104.093 67.2765 103.794C67.061 103.495 66.8048 103.285 66.508 103.163C66.2094 103.043 65.8942 103.011 65.5624 103.069C65.2305 103.126 64.9453 103.262 64.7069 103.477C64.4666 103.691 64.2963 103.975 64.1961 104.329C64.094 104.683 64.0843 105.098 64.1667 105.572Z" fill="white"/>
<path d="M57.8775 107.083L58.55 107.044C58.6011 107.235 58.6807 107.401 58.7888 107.541C58.895 107.682 59.0215 107.798 59.1684 107.889C59.3135 107.982 59.4725 108.049 59.6454 108.09C59.8183 108.13 59.997 108.145 60.1814 108.134C60.5177 108.115 60.8173 108.012 61.0803 107.826C61.3415 107.64 61.5428 107.377 61.6843 107.037C61.824 106.696 61.8797 106.286 61.8514 105.805C61.8232 105.324 61.7198 104.923 61.5413 104.601C61.361 104.28 61.1303 104.042 60.8491 103.888C60.5662 103.734 60.2566 103.667 59.9203 103.687C59.7359 103.698 59.5602 103.734 59.3933 103.794C59.2263 103.855 59.0761 103.939 58.9428 104.047C58.8077 104.156 58.6956 104.287 58.6066 104.439C58.5159 104.593 58.4563 104.767 58.4277 104.961L57.7552 105.001C57.7892 104.714 57.8665 104.454 57.9871 104.222C58.1077 103.99 58.2628 103.79 58.4525 103.621C58.6422 103.454 58.8585 103.322 59.1014 103.226C59.3425 103.131 59.6031 103.074 59.8834 103.058C60.357 103.03 60.785 103.121 61.1674 103.331C61.5498 103.541 61.8593 103.853 62.0958 104.267C62.3324 104.681 62.4679 105.181 62.5023 105.767C62.5367 106.353 62.4606 106.865 62.2741 107.304C62.0877 107.743 61.8168 108.089 61.4616 108.342C61.1064 108.595 60.692 108.736 60.2183 108.763C59.9381 108.78 59.6727 108.755 59.4221 108.688C59.1696 108.621 58.9393 108.515 58.7312 108.369C58.5232 108.225 58.3458 108.045 58.1988 107.829C58.052 107.614 57.9449 107.366 57.8775 107.083Z" fill="white"/>
<path d="M57.2525 108.177L57.2277 108.775L53.0588 108.601L53.0837 108.004L54.8315 108.077L55.0377 103.116L55.7108 103.144L55.5046 108.105L57.2525 108.177Z" fill="white"/>
<path d="M48.2961 105.12C48.3795 104.54 48.5564 104.053 48.8269 103.66C49.0973 103.267 49.4319 102.982 49.8305 102.805C50.2291 102.628 50.6633 102.573 51.1329 102.641C51.6026 102.708 52.0038 102.883 52.3365 103.165C52.6692 103.447 52.9101 103.814 53.0591 104.267C53.2081 104.721 53.2409 105.238 53.1575 105.818C53.0741 106.399 52.8972 106.886 52.6267 107.279C52.3563 107.672 52.0217 107.957 51.6231 108.134C51.2245 108.311 50.7903 108.366 50.3207 108.298C49.851 108.231 49.4498 108.056 49.1171 107.774C48.7844 107.492 48.5435 107.125 48.3945 106.671C48.2455 106.218 48.2127 105.701 48.2961 105.12ZM48.9414 105.213C48.8729 105.69 48.8949 106.104 49.0074 106.455C49.118 106.805 49.2966 107.084 49.5431 107.292C49.7878 107.499 50.0768 107.626 50.4103 107.674C50.7437 107.722 51.0578 107.681 51.3527 107.552C51.6458 107.422 51.8956 107.204 52.1022 106.899C52.3071 106.594 52.4437 106.203 52.5122 105.726C52.5807 105.249 52.5596 104.835 52.4489 104.484C52.3365 104.134 52.1579 103.855 51.9132 103.647C51.6667 103.44 51.3768 103.312 51.0433 103.265C50.7099 103.217 50.3967 103.258 50.1036 103.388C49.8087 103.517 49.5589 103.735 49.354 104.04C49.1474 104.345 49.0099 104.736 48.9414 105.213Z" fill="white"/>
<path d="M47.7728 102.131L46.378 107.516L44.5583 107.045C44.1375 106.936 43.8108 106.775 43.578 106.561C43.3448 106.349 43.1956 106.102 43.1303 105.819C43.0651 105.537 43.0736 105.237 43.1557 104.92C43.2379 104.602 43.3757 104.338 43.5689 104.126C43.7622 103.914 44.0112 103.773 44.3157 103.702C44.6198 103.633 44.9805 103.652 45.3977 103.761L46.8703 104.142L46.7178 104.731L45.2662 104.355C44.9787 104.281 44.7364 104.263 44.5393 104.301C44.3404 104.34 44.1816 104.426 44.0627 104.56C43.9417 104.695 43.8532 104.87 43.7974 105.086C43.7415 105.301 43.733 105.5 43.7719 105.683C43.8108 105.865 43.9074 106.023 44.0618 106.156C44.2157 106.291 44.4381 106.397 44.7291 106.472L45.8757 106.769L47.1206 101.962L47.7728 102.131ZM44.6112 103.894L43.9125 101.131L44.6698 101.327L45.3475 104.084L44.6112 103.894Z" fill="white"/>
<path d="M39.2754 103.855C39.2126 104.125 39.2644 104.37 39.4308 104.592C39.5971 104.814 39.8387 104.982 40.1556 105.097C40.3872 105.18 40.6034 105.216 40.8042 105.204C41.0033 105.191 41.1751 105.136 41.3195 105.04C41.4623 104.943 41.5638 104.812 41.624 104.645C41.6745 104.505 41.6846 104.373 41.6544 104.248C41.622 104.125 41.5649 104.011 41.4833 103.907C41.4011 103.804 41.3097 103.71 41.2093 103.626C41.1082 103.543 41.0137 103.471 40.9259 103.411L40.4461 103.076C40.3227 102.991 40.1889 102.887 40.0448 102.763C39.8989 102.64 39.769 102.495 39.655 102.331C39.5388 102.168 39.4608 101.984 39.4212 101.779C39.3816 101.574 39.4061 101.349 39.4946 101.103C39.5967 100.821 39.763 100.592 39.9936 100.417C40.2225 100.242 40.5026 100.138 40.8339 100.105C41.1636 100.072 41.5294 100.128 41.9314 100.273C42.3061 100.409 42.6088 100.586 42.8393 100.806C43.0682 101.026 43.222 101.272 43.3006 101.545C43.3775 101.817 43.3745 102.1 43.2916 102.393L42.6376 102.157C42.6918 101.954 42.6845 101.766 42.6154 101.595C42.5439 101.425 42.4302 101.276 42.2741 101.148C42.1157 101.022 41.9326 100.921 41.7248 100.846C41.4829 100.758 41.2516 100.719 41.0308 100.728C40.8094 100.739 40.617 100.794 40.4535 100.895C40.2895 100.998 40.173 101.144 40.1041 101.335C40.0414 101.509 40.0389 101.668 40.0966 101.812C40.1544 101.956 40.2501 102.091 40.384 102.216C40.5178 102.341 40.6674 102.463 40.833 102.58L41.4104 102.997C41.7768 103.262 42.0398 103.546 42.1996 103.85C42.3594 104.154 42.3756 104.483 42.2483 104.835C42.1425 105.128 41.9711 105.355 41.734 105.516C41.4945 105.678 41.2184 105.771 40.9056 105.795C40.5905 105.82 40.266 105.772 39.9322 105.651C39.5949 105.529 39.317 105.361 39.0983 105.145C38.879 104.931 38.7303 104.693 38.652 104.43C38.572 104.166 38.5754 103.9 38.6622 103.633L39.2754 103.855Z" fill="white"/>
<path d="M32.4072 98.3993L31.7366 99.3897L32.9333 99.3819L32.9124 99.9071L31.7158 99.8123L32.3248 100.847L31.8617 101.095L31.3448 100.016L30.748 101.053L30.3058 100.776L30.9763 99.7857L29.7797 99.7934L29.8005 99.2682L30.9972 99.363L30.3882 98.3285L30.8512 98.0799L31.3681 99.1592L31.965 98.1228L32.4072 98.3993Z" fill="white"/>
<path d="M28.9335 92.955L25.2866 97.1561L22.7676 94.9694L23.1593 94.5181L25.1697 96.2632L26.4019 94.8437L24.5803 93.2624L24.9721 92.8111L26.7937 94.3924L28.4248 92.5133L28.9335 92.955Z" fill="white"/>
<path d="M19.4052 91.4798L18.9437 90.9889L21.6276 88.466C21.9046 88.2055 22.2134 88.0383 22.554 87.9642C22.8919 87.8901 23.2346 87.9122 23.5819 88.0306C23.928 88.1502 24.2505 88.369 24.5494 88.687C24.8483 89.005 25.0468 89.3404 25.1448 89.6931C25.2415 90.0472 25.243 90.3912 25.1494 90.7252C25.0533 91.0592 24.8666 91.3564 24.5896 91.6169L21.9057 94.1398L21.4443 93.649L24.0886 91.1633C24.2865 90.9772 24.4217 90.7681 24.4942 90.5359C24.5654 90.3049 24.5695 90.0674 24.5066 89.8233C24.4411 89.5791 24.3023 89.3442 24.0902 89.1186C23.8781 88.893 23.6523 88.74 23.4126 88.6595C23.1716 88.5803 22.9343 88.5698 22.7006 88.6279C22.4644 88.686 22.2473 88.808 22.0494 88.9941L19.4052 91.4798Z" fill="white"/>
<path d="M18.6518 89.6733L18.177 90.0362L15.6433 86.7211L16.1182 86.3582L17.1804 87.7481L21.1257 84.7328L21.5348 85.2681L17.5895 88.2834L18.6518 89.6733Z" fill="white"/>
<path d="M13.3292 82.9823L12.977 82.408L16.117 80.4823C16.4412 80.2835 16.7775 80.1824 17.1259 80.179C17.4719 80.175 17.8029 80.2662 18.1191 80.4526C18.4336 80.64 18.705 80.9197 18.9332 81.2917C19.1614 81.6638 19.2876 82.0324 19.312 82.3978C19.3348 82.764 19.2665 83.1012 19.107 83.4093C18.9451 83.7168 18.702 83.97 18.3778 84.1688L15.2378 86.0945L14.8856 85.5202L17.9793 83.6229C18.2109 83.4809 18.3857 83.3036 18.5039 83.0909C18.6205 82.8792 18.6727 82.6475 18.6606 82.3957C18.6461 82.1433 18.5579 81.8852 18.396 81.6212C18.2341 81.3572 18.0439 81.1615 17.8256 81.0341C17.6057 80.9077 17.3755 80.8492 17.1349 80.8587C16.8918 80.8675 16.6544 80.943 16.4229 81.085L13.3292 82.9823Z" fill="white"/>
<path d="M17.3027 78.6353L12.278 81.0233L11.4711 79.3256C11.2846 78.933 11.1985 78.5789 11.2129 78.2633C11.2257 77.9485 11.3194 77.6753 11.4942 77.4439C11.6689 77.2125 11.9043 77.0264 12.2003 76.8857C12.4964 76.745 12.7877 76.6808 13.0742 76.693C13.3607 76.7052 13.6288 76.8053 13.8786 76.9934C14.1268 77.1822 14.3434 77.4713 14.5284 77.8606L15.1813 79.2345L14.6318 79.4957L13.9881 78.1414C13.8606 77.8731 13.7188 77.6759 13.5625 77.5496C13.4055 77.4218 13.2375 77.3552 13.0586 77.35C12.8773 77.344 12.686 77.3887 12.4849 77.4844C12.2837 77.58 12.1257 77.7012 12.011 77.8479C11.8963 77.9947 11.8373 78.1701 11.834 78.3741C11.8291 78.579 11.8912 78.8172 12.0202 79.0887L12.5286 80.1584L17.0135 78.0269L17.3027 78.6353ZM13.9215 77.343L15.5909 75.0337L15.9267 75.7403L14.2479 78.0299L13.9215 77.343Z" fill="white"/>
<path d="M15.4774 74.6415L10.2527 76.5524L9.09944 73.3992L9.66069 73.194L10.5826 75.7145L12.348 75.0688L11.4858 72.7115L12.047 72.5063L12.9092 74.8635L14.6848 74.2141L13.748 71.6528L14.3092 71.4475L15.4774 74.6415Z" fill="white"/>
<path d="M13.3117 67.5296L13.6657 69.2095L8.22207 70.3567L7.85238 68.6024C7.7411 68.0743 7.75485 67.5995 7.89364 67.1779C8.03067 66.7566 8.28097 66.4032 8.64457 66.1174C9.0064 65.832 9.46906 65.63 10.0326 65.5112C10.5996 65.3917 11.1091 65.3898 11.561 65.5056C12.0111 65.6217 12.3868 65.8498 12.6879 66.1898C12.9873 66.5301 13.1952 66.9768 13.3117 67.5296ZM12.942 68.6735L12.7359 67.6954C12.6411 67.2453 12.4756 66.8906 12.2396 66.6312C12.0036 66.3719 11.7099 66.2034 11.3585 66.1257C11.0072 66.048 10.61 66.0558 10.167 66.1491C9.72754 66.2417 9.36433 66.3932 9.07739 66.6036C8.78867 66.8144 8.58931 67.0803 8.47932 67.4015C8.36756 67.723 8.35648 68.0964 8.44611 68.5217L8.66792 69.5742L12.942 68.6735Z" fill="white"/>
<path d="M9.44147 59.4349C10.0261 59.3846 10.5403 59.4466 10.9843 59.6211C11.4283 59.7955 11.7816 60.0568 12.0442 60.405C12.3069 60.7532 12.4585 61.1637 12.4992 61.6364C12.5399 62.1091 12.4606 62.5394 12.2614 62.9274C12.0621 63.3153 11.7586 63.6332 11.351 63.881C10.9434 64.1287 10.4473 64.2777 9.86268 64.3281C9.2781 64.3784 8.76382 64.3163 8.31984 64.1419C7.87586 63.9674 7.52255 63.7061 7.25992 63.3579C6.99729 63.0097 6.84563 62.5993 6.80493 62.1266C6.76424 61.6538 6.84353 61.2235 7.04279 60.8356C7.24205 60.4476 7.5455 60.1297 7.95314 59.882C8.36077 59.6342 8.85688 59.4852 9.44147 59.4349ZM9.49738 60.0844C9.01744 60.1257 8.6193 60.2409 8.30294 60.4299C7.98642 60.6171 7.75509 60.8542 7.60894 61.1413C7.46264 61.4265 7.40393 61.7369 7.43282 62.0725C7.46171 62.4081 7.57268 62.7048 7.76573 62.9627C7.95863 63.2187 8.22709 63.4128 8.57109 63.545C8.91494 63.6753 9.32683 63.7198 9.80677 63.6785C10.2867 63.6372 10.6849 63.523 11.0014 63.3358C11.3178 63.1468 11.5491 62.9096 11.6954 62.6244C11.8416 62.3373 11.9002 62.026 11.8713 61.6904C11.8424 61.3548 11.7315 61.059 11.5386 60.803C11.3456 60.5451 11.0771 60.351 10.7333 60.2207C10.3893 60.0885 9.97732 60.0431 9.49738 60.0844Z" fill="white"/>
<path d="M8.52386 53.6962L8.50623 54.3696C8.31148 54.4044 8.13948 54.4696 7.99024 54.5653C7.84104 54.6592 7.71481 54.7755 7.61155 54.9141C7.50652 55.0508 7.42643 55.2036 7.37129 55.3725C7.31614 55.5413 7.28615 55.7181 7.28132 55.9027C7.2725 56.2394 7.3496 56.5467 7.51261 56.8245C7.67567 57.1005 7.92073 57.3234 8.2478 57.4932C8.57492 57.6612 8.97925 57.7515 9.4608 57.7641C9.94235 57.7767 10.3508 57.7077 10.6863 57.5571C11.0218 57.4046 11.2782 57.1949 11.4555 56.9278C11.6328 56.6589 11.7259 56.356 11.7347 56.0193C11.7395 55.8347 11.7188 55.6566 11.6726 55.4851C11.6264 55.3136 11.5553 55.1569 11.4594 55.0149C11.3617 54.871 11.2408 54.7483 11.0968 54.6467C10.9509 54.5432 10.7826 54.4691 10.5917 54.4242L10.6094 53.7508C10.8922 53.8089 11.1442 53.9079 11.3652 54.0477C11.5861 54.1876 11.7728 54.3591 11.925 54.5624C12.0755 54.7656 12.1882 54.9923 12.2632 55.2424C12.3382 55.4908 12.3721 55.7552 12.3647 56.0358C12.3523 56.5101 12.2254 56.9289 11.984 57.2921C11.7426 57.6554 11.4055 57.9373 10.9727 58.1379C10.5399 58.3385 10.0303 58.4312 9.44373 58.4158C8.85719 58.4005 8.35307 58.2813 7.93138 58.0583C7.50969 57.8353 7.18782 57.5361 6.96577 57.1607C6.74372 56.7854 6.6389 56.3605 6.65132 55.8862C6.65867 55.6056 6.7063 55.3433 6.79421 55.0992C6.88217 54.8533 7.00751 54.6329 7.17022 54.4379C7.33112 54.2428 7.52557 54.0812 7.75356 53.9532C7.97973 53.825 8.2365 53.7394 8.52386 53.6962Z" fill="white"/>
<path d="M7.48475 52.9745L6.89196 52.8986L7.42141 48.7599L8.01419 48.8358L7.79221 50.571L12.7177 51.2011L12.6322 51.8693L7.70673 51.2392L7.48475 52.9745Z" fill="white"/>
<path d="M11.3059 44.3113C11.8774 44.4445 12.3471 44.6629 12.7152 44.9663C13.0833 45.2698 13.3382 45.6277 13.48 46.0401C13.6218 46.4525 13.6389 46.8898 13.5311 47.3519C13.4233 47.8139 13.2146 48.1985 12.9049 48.5056C12.5953 48.8127 12.2083 49.0209 11.7439 49.1302C11.2796 49.2395 10.7617 49.2274 10.1903 49.0941C9.61888 48.9609 9.14914 48.7425 8.78106 48.4391C8.41298 48.1357 8.15803 47.7777 8.01621 47.3653C7.87439 46.9529 7.85737 46.5156 7.96516 46.0536C8.07294 45.5915 8.28166 45.2069 8.59132 44.8998C8.90098 44.5927 9.28798 44.3845 9.75232 44.2752C10.2167 44.166 10.7345 44.178 11.3059 44.3113ZM11.1578 44.9462C10.6887 44.8367 10.2745 44.8229 9.91514 44.9045C9.5562 44.9845 9.26279 45.1382 9.03489 45.3659C8.8074 45.5917 8.6554 45.8687 8.57889 46.1967C8.50237 46.5247 8.51594 46.8412 8.61961 47.1462C8.72368 47.4494 8.91878 47.7172 9.2049 47.9494C9.49144 48.1799 9.86927 48.3498 10.3384 48.4593C10.8075 48.5687 11.2215 48.5834 11.5805 48.5035C11.9398 48.4218 12.2332 48.2681 12.4607 48.0422C12.6886 47.8146 12.8408 47.5367 12.9173 47.2087C12.9939 46.8807 12.9801 46.565 12.876 46.2618C12.7724 45.9569 12.5773 45.6891 12.2907 45.4587C12.0046 45.2264 11.627 45.0556 11.1578 44.9462Z" fill="white"/>
<path d="M14.3298 44.0542L9.08532 42.1981L9.71249 40.4261C9.8575 40.0163 10.0465 39.7048 10.2796 39.4914C10.5109 39.2775 10.7701 39.1502 11.0572 39.1097C11.3444 39.0692 11.6424 39.1036 11.9514 39.2129C12.2604 39.3223 12.5121 39.4824 12.7064 39.6934C12.9007 39.9043 13.0199 40.1645 13.064 40.474C13.1064 40.783 13.0557 41.1406 12.9119 41.5469L12.4044 42.9809L11.8308 42.7779L12.3311 41.3644C12.4302 41.0844 12.469 40.8446 12.4474 40.6448C12.4265 40.4434 12.3545 40.2777 12.2315 40.1477C12.1073 40.0154 11.9403 39.9121 11.7303 39.8378C11.5203 39.7635 11.3229 39.7378 11.138 39.7607C10.9532 39.7837 10.7876 39.8662 10.6412 40.0084C10.4931 40.1501 10.3689 40.3626 10.2686 40.6459L9.87345 41.7624L14.5545 43.4192L14.3298 44.0542ZM12.8475 40.7519L15.6602 40.295L15.3992 41.0325L12.5938 41.4689L12.8475 40.7519Z" fill="white"/>
<path d="M13.3483 35.4363C13.0848 35.3504 12.8353 35.3807 12.6 35.5273C12.3647 35.6738 12.1763 35.9 12.035 36.2057C11.9316 36.4293 11.8774 36.6416 11.8722 36.8427C11.8678 37.0422 11.9072 37.218 11.9904 37.3702C12.0745 37.5208 12.197 37.6333 12.3581 37.7078C12.4929 37.7701 12.6236 37.7916 12.7502 37.7723C12.876 37.7507 12.9944 37.7037 13.1057 37.6314C13.2152 37.5584 13.3164 37.4755 13.4092 37.3827C13.5003 37.2891 13.5798 37.2012 13.6478 37.1189L14.023 36.6699C14.1183 36.5543 14.2336 36.4301 14.3689 36.2971C14.5049 36.1625 14.6598 36.0455 14.8333 35.9462C15.0061 35.8445 15.1962 35.7827 15.4038 35.761C15.6113 35.7392 15.8335 35.7831 16.0702 35.8925C16.3431 36.0186 16.5566 36.2041 16.7107 36.449C16.8656 36.6922 16.945 36.9802 16.9487 37.3131C16.9532 37.6444 16.8657 38.004 16.6864 38.3919C16.5192 38.7535 16.3161 39.0397 16.0771 39.2504C15.8388 39.4595 15.5803 39.5914 15.3016 39.6461C15.0237 39.6992 14.7421 39.6717 14.4568 39.5638L14.7486 38.9326C14.9469 39.0043 15.1343 39.0131 15.3109 38.9591C15.4867 38.9027 15.6448 38.8022 15.7854 38.6577C15.9252 38.5108 16.0414 38.3371 16.1341 38.1366C16.242 37.9032 16.3011 37.6761 16.3113 37.4554C16.3199 37.2339 16.2811 37.0374 16.1948 36.8659C16.1069 36.6935 15.9709 36.5648 15.7868 36.4797C15.6191 36.4022 15.461 36.386 15.3125 36.431C15.164 36.4761 15.0215 36.5599 14.8851 36.6824C14.7487 36.8048 14.6148 36.9434 14.4834 37.0982L14.0186 37.6375C13.7228 37.9795 13.4165 38.217 13.0997 38.3499C12.7829 38.4827 12.4544 38.4705 12.1141 38.3132C11.8314 38.1825 11.6202 37.9921 11.4804 37.742C11.3398 37.4894 11.2712 37.2063 11.2745 36.8926C11.277 36.5766 11.3527 36.2574 11.5016 35.9353C11.6521 35.6098 11.8442 35.3474 12.0779 35.1483C12.31 34.9483 12.5605 34.8207 12.8295 34.7655C13.0991 34.7086 13.3633 34.7349 13.6219 34.8445L13.3483 35.4363Z" fill="white"/>
</g>
<defs>
<linearGradient id="paint0_linear_661_134545" x1="114.682" y1="57.7527" x2="228.683" y2="57.7527" gradientUnits="userSpaceOnUse">
<stop stop-color="#511B4D"/>
<stop offset="1" stop-color="#85037C"/>
</linearGradient>
<clipPath id="clip0_661_134545">
<rect width="105.058" height="105.07" fill="white" transform="translate(5.15234 5.21777)"/>
</clipPath>
</defs>
</svg>
