<svg width="33" height="33" viewBox="0 0 33 33" fill="none" xmlns="http://www.w3.org/2000/svg">
<g clip-path="url(#clip0_2159_1880)">
<path d="M8.45435 32.8428C7.21662 32.829 5.99052 32.602 4.82988 32.1717C3.98234 31.8584 3.21552 31.3597 2.58549 30.712C1.93601 30.0832 1.43653 29.3162 1.12416 28.4679C0.694276 27.3073 0.467587 26.0813 0.45404 24.8437C0.358981 22.7863 0.339844 22.1692 0.339844 16.9561C0.339844 11.7429 0.360863 11.128 0.453099 9.069C0.46829 7.8319 0.695258 6.60655 1.12416 5.44609C1.43805 4.59841 1.93682 3.83128 2.58424 3.20045C3.21348 2.55155 3.98066 2.05253 4.82894 1.74037C5.98958 1.31013 7.21568 1.08312 8.45341 1.06931C10.5115 0.975192 11.1295 0.956055 16.3398 0.956055C21.5502 0.956055 22.1679 0.977074 24.2269 1.06931C25.4643 1.08439 26.69 1.31136 27.8507 1.74037C28.6987 2.05294 29.4656 2.55178 30.0951 3.20013C30.7437 3.82986 31.2427 4.59703 31.5555 5.44515C31.9859 6.60577 32.213 7.83187 32.2269 9.06962C32.321 11.1286 32.3402 11.7451 32.3402 16.9567C32.3402 22.1683 32.321 22.7848 32.2269 24.8437C32.212 26.0813 31.9849 27.3071 31.5555 28.4679C31.2308 29.3097 30.7333 30.0741 30.0953 30.712C29.4572 31.3499 28.6926 31.8472 27.8507 32.1717C26.6901 32.6021 25.464 32.8292 24.2263 32.8431C22.1692 32.9372 21.5508 32.9564 16.3392 32.9564C11.1276 32.9564 10.5111 32.9382 8.45404 32.8431" fill="url(#paint0_radial_2159_1880)"/>
<path d="M8.45435 32.8428C7.21662 32.829 5.99052 32.602 4.82988 32.1717C3.98234 31.8584 3.21552 31.3597 2.58549 30.712C1.93601 30.0832 1.43653 29.3162 1.12416 28.4679C0.694276 27.3073 0.467587 26.0813 0.45404 24.8437C0.358981 22.7863 0.339844 22.1692 0.339844 16.9561C0.339844 11.7429 0.360863 11.128 0.453099 9.069C0.46829 7.8319 0.695258 6.60655 1.12416 5.44609C1.43805 4.59841 1.93682 3.83128 2.58424 3.20045C3.21348 2.55155 3.98066 2.05253 4.82894 1.74037C5.98958 1.31013 7.21568 1.08312 8.45341 1.06931C10.5115 0.975192 11.1295 0.956055 16.3398 0.956055C21.5502 0.956055 22.1679 0.977074 24.2269 1.06931C25.4643 1.08439 26.69 1.31136 27.8507 1.74037C28.6987 2.05294 29.4656 2.55178 30.0951 3.20013C30.7437 3.82986 31.2427 4.59703 31.5555 5.44515C31.9859 6.60577 32.213 7.83187 32.2269 9.06962C32.321 11.1286 32.3402 11.7451 32.3402 16.9567C32.3402 22.1683 32.321 22.7848 32.2269 24.8437C32.212 26.0813 31.9849 27.3071 31.5555 28.4679C31.2308 29.3097 30.7333 30.0741 30.0953 30.712C29.4572 31.3499 28.6926 31.8472 27.8507 32.1717C26.6901 32.6021 25.464 32.8292 24.2263 32.8431C22.1692 32.9372 21.5508 32.9564 16.3392 32.9564C11.1276 32.9564 10.5111 32.9382 8.45404 32.8431" fill="url(#paint1_radial_2159_1880)"/>
<path d="M12.4123 17.0246C12.4124 16.2408 12.6448 15.4747 13.0803 14.8231C13.5158 14.1714 14.1347 13.6636 14.8589 13.3637C15.583 13.0639 16.3798 12.9855 17.1485 13.1385C17.9171 13.2914 18.6232 13.6689 19.1773 14.2232C19.7314 14.7775 20.1088 15.4836 20.2616 16.2523C20.4144 17.021 20.3358 17.8178 20.0358 18.5418C19.7357 19.2659 19.2277 19.8847 18.576 20.3201C17.9243 20.7554 17.1581 20.9877 16.3743 20.9876C15.3234 20.9874 14.3156 20.5698 13.5726 19.8266C12.8296 19.0834 12.4122 18.0755 12.4123 17.0246ZM10.2699 17.0246C10.2699 18.2319 10.6279 19.4122 11.2986 20.416C11.9694 21.4199 12.9228 22.2023 14.0382 22.6644C15.1537 23.1264 16.3811 23.2473 17.5652 23.0118C18.7494 22.7762 19.8371 22.1948 20.6908 21.3411C21.5446 20.4874 22.126 19.3997 22.3615 18.2155C22.597 17.0314 22.4762 15.8039 22.0141 14.6885C21.5521 13.573 20.7697 12.6197 19.7658 11.9489C18.7619 11.2781 17.5817 10.9201 16.3743 10.9201C15.5727 10.9201 14.7788 11.0779 14.0382 11.3847C13.2976 11.6915 12.6246 12.1411 12.0577 12.708C11.4909 13.2748 11.0412 13.9478 10.7345 14.6884C10.4277 15.4291 10.2698 16.2229 10.2699 17.0246ZM21.2939 10.6782C21.2937 10.9604 21.3773 11.2362 21.5339 11.4709C21.6906 11.7055 21.9133 11.8885 22.1739 11.9965C22.4345 12.1046 22.7213 12.133 22.998 12.0781C23.2748 12.0232 23.529 11.8874 23.7286 11.688C23.9282 11.4886 24.0642 11.2345 24.1193 10.9578C24.1745 10.6811 24.1464 10.3942 24.0385 10.1335C23.9307 9.87282 23.7479 9.64996 23.5134 9.49311C23.2789 9.33626 23.0031 9.25247 22.721 9.25235C22.3428 9.25251 21.9802 9.40277 21.7127 9.67012C21.4452 9.93747 21.2948 10.3 21.2945 10.6782M11.5721 26.7014C10.8183 26.6932 10.0715 26.5552 9.36444 26.2936C8.85168 26.096 8.38599 25.7931 7.99733 25.4047C7.60867 25.0162 7.30567 24.5506 7.10781 24.0379C6.8461 23.3309 6.70814 22.5841 6.69998 21.8302C6.64225 20.5772 6.63096 20.2007 6.63096 17.0261C6.63096 13.8516 6.6435 13.476 6.69998 12.2218C6.70912 11.468 6.84705 10.7213 7.10781 10.0141C7.30544 9.50115 7.60835 9.03533 7.99703 8.64666C8.38571 8.25798 8.85152 7.95506 9.36444 7.75744C10.0715 7.49573 10.8183 7.35777 11.5721 7.3496C12.8252 7.29187 13.2016 7.28058 16.375 7.28058C19.5483 7.28058 19.9251 7.29282 21.1793 7.34992C21.9331 7.35906 22.6798 7.49699 23.387 7.75776C23.8999 7.9554 24.3657 8.25832 24.7544 8.64699C25.1431 9.03567 25.446 9.50147 25.6437 10.0144C25.9054 10.7214 26.0433 11.4682 26.0515 12.2221C26.1092 13.477 26.1205 13.8516 26.1205 17.0265C26.1205 20.2014 26.1089 20.5766 26.0515 21.8309C26.0427 22.5846 25.9048 23.3314 25.6437 24.0385C25.4458 24.5512 25.1428 25.0168 24.7541 25.4053C24.3655 25.7938 23.8998 26.0966 23.387 26.2942C22.68 26.5559 21.9332 26.6939 21.1793 26.7021C19.9263 26.7598 19.5499 26.7711 16.375 26.7711C13.2001 26.7711 12.8248 26.7595 11.5721 26.7021M11.4736 5.20905C10.4872 5.22845 9.51126 5.41514 8.58735 5.7612C7.79754 6.06657 7.08027 6.53362 6.4815 7.13238C5.88274 7.73115 5.41569 8.44842 5.11032 9.23822C4.76431 10.1622 4.57762 11.1381 4.55817 12.1245C4.49951 13.392 4.48633 13.7973 4.48633 17.0258C4.48633 20.2544 4.49982 20.6594 4.55817 21.9272C4.57761 22.9136 4.76431 23.8895 5.11032 24.8134C5.41571 25.6032 5.88276 26.3205 6.48152 26.9193C7.08028 27.518 7.79755 27.9851 8.58735 28.2905C9.5113 28.6364 10.4872 28.8231 11.4736 28.8426C12.7417 28.9003 13.1464 28.9145 16.375 28.9145C19.6035 28.9145 20.0085 28.901 21.2763 28.8426C22.2627 28.8231 23.2386 28.6364 24.1626 28.2905C24.9524 27.9851 25.6696 27.518 26.2684 26.9193C26.8671 26.3205 27.3342 25.6032 27.6396 24.8134C27.9861 23.8896 28.1728 22.9136 28.1917 21.9272C28.2495 20.6588 28.2626 20.2544 28.2626 17.0258C28.2626 13.7973 28.2492 13.3923 28.1917 12.1245C28.1723 11.1381 27.9856 10.1621 27.6396 9.23822C27.3342 8.44857 26.8673 7.73141 26.2687 7.13266C25.6701 6.53391 24.9531 6.06678 24.1635 5.7612C23.2397 5.41492 22.2637 5.22821 21.2772 5.20905C20.0095 5.15101 19.6044 5.13721 16.3765 5.13721C13.1486 5.13721 12.7426 5.1507 11.4742 5.20905" fill="white"/>
</g>
<defs>
<radialGradient id="paint0_radial_2159_1880" cx="0" cy="0" r="1" gradientUnits="userSpaceOnUse" gradientTransform="translate(2.41074 32.2552) scale(40.6281)">
<stop offset="0.09" stop-color="#FA8F21"/>
<stop offset="0.78" stop-color="#D82D7E"/>
</radialGradient>
<radialGradient id="paint1_radial_2159_1880" cx="0" cy="0" r="1" gradientUnits="userSpaceOnUse" gradientTransform="translate(22.5052 31.2274) scale(35.7531)">
<stop offset="0.64" stop-color="#8C3AAA" stop-opacity="0"/>
<stop offset="1" stop-color="#8C3AAA"/>
</radialGradient>
<clipPath id="clip0_2159_1880">
<rect width="32" height="32" fill="white" transform="translate(0.5 0.478027)"/>
</clipPath>
</defs>
</svg>
