<svg width="41" height="32" viewBox="0 0 41 32" fill="none" xmlns="http://www.w3.org/2000/svg">
<path d="M7.12891 0.378632C3.48578 0.378632 0.507812 3.35668 0.507812 6.99973V25.1729C0.507812 28.8161 3.48578 31.794 7.12891 31.794H33.8895C37.5326 31.794 40.5078 28.8161 40.5078 25.1729V6.99981C40.5078 3.35668 37.5326 0.37871 33.8895 0.37871L7.12891 0.378632ZM8.71305 7.96754L18.2933 18.1307C19.4517 19.2354 21.3096 19.2697 22.4043 18.1586L32.336 7.95082C32.8859 7.38551 33.7899 7.37301 34.3552 7.92293C34.9205 8.47285 34.933 9.37684 34.3831 9.94215C31.068 13.3483 27.7524 16.7555 24.4375 20.1611C22.2128 22.4193 18.5683 22.3398 16.3215 20.1973C13.0945 16.7809 9.86242 13.3488 6.63523 9.92535C6.09617 9.35129 6.12359 8.4491 6.69656 7.90887C7.32812 7.31793 8.26484 7.51043 8.71305 7.96754Z" fill="#511B4D"/>
</svg>
