<svg width="41" height="41" viewBox="0 0 41 41" fill="none" xmlns="http://www.w3.org/2000/svg">
<g clip-path="url(#clip0_685_335583)">
<path d="M40.5091 27.8734V37.6445C40.5095 37.9809 40.4423 38.3139 40.3113 38.6237C40.1803 38.9335 39.9882 39.2138 39.7466 39.4477C39.3253 39.8576 38.7609 40.0872 38.1731 40.0876C38.1403 40.0876 38.1075 40.0868 38.0747 40.0852C28.2482 39.6657 18.9385 35.5676 11.9927 28.6039C5.02812 21.6577 0.929402 12.347 0.509875 2.51954C0.496732 2.21226 0.546498 1.90554 0.656122 1.61818C0.765745 1.33082 0.932915 1.06888 1.14738 0.848436C1.38136 0.606813 1.66159 0.414777 1.97138 0.283777C2.28116 0.152776 2.61415 0.0854933 2.9505 0.0859397H12.7216C13.2985 0.0883973 13.8555 0.297601 14.2914 0.67559C14.7273 1.05358 15.0133 1.57531 15.0974 2.1461L16.388 11.1805C16.4398 11.5493 16.4055 11.9252 16.2877 12.2785C16.1699 12.6319 15.9718 12.9531 15.7091 13.2171L11.8771 17.0491C11.7497 17.1741 11.6674 17.3377 11.6431 17.5145C11.6188 17.6912 11.6538 17.871 11.7427 18.0257C14.4474 22.438 18.1575 26.1479 22.57 28.8523C22.7245 28.9409 22.904 28.9757 23.0805 28.9514C23.2569 28.9271 23.4203 28.845 23.545 28.7179L27.3779 24.8859C27.642 24.6235 27.9631 24.4257 28.3163 24.308C28.6695 24.1902 29.0451 24.1557 29.4138 24.207L38.4482 25.4977C39.0191 25.5816 39.541 25.8675 39.9192 26.3034C40.2973 26.7393 40.5066 27.2964 40.5091 27.8734Z" fill="#511B4D"/>
</g>
<defs>
<clipPath id="clip0_685_335583">
<rect width="40" height="40" fill="white" transform="translate(0.507812 0.0859375)"/>
</clipPath>
</defs>
</svg>
