<svg width="29" height="29" viewBox="0 0 29 29" fill="none" xmlns="http://www.w3.org/2000/svg">
<path fill-rule="evenodd" clip-rule="evenodd" d="M28.3408 4.95605C28.3408 2.74605 26.5508 0.956055 24.3408 0.956055H4.34082C2.13082 0.956055 0.34082 2.74605 0.34082 4.95605V24.9561C0.34082 27.1661 2.13082 28.9561 4.34082 28.9561H24.3408C26.5508 28.9561 28.3408 27.1661 28.3408 24.9561V4.95605Z" fill="#050505"/>
<path d="M5.87477 23.0954H7.87477L13.2148 17.0254L17.8598 23.0854H23.2898L16.1648 13.6654L22.1948 6.81543H20.1948L15.2398 12.4454L10.9898 6.82043H5.38477L12.2798 15.8154L5.86977 23.1004L5.87477 23.0954ZM8.42977 8.31543H10.2498L20.2798 21.5854H18.6048L8.43477 8.31543H8.42977Z" fill="white"/>
</svg>
