<svg width="1280" height="420" viewBox="0 0 1280 420" fill="none" xmlns="http://www.w3.org/2000/svg">
<g opacity="0.03">
<path d="M91.8136 277.634H66.7953V252.59H43.1824V277.634H18.1641V301.221H43.1824V326.239H66.7953V301.221H91.8136V277.634Z" fill="black" stroke="white" stroke-width="1.50804" stroke-linecap="round" stroke-linejoin="round"/>
<path d="M665.142 199.331H640.123V174.312H616.51V199.331H591.492V222.944H616.51V247.962H640.123V222.944H665.142V199.331Z" fill="black" stroke="white" stroke-width="1.50804" stroke-linecap="round" stroke-linejoin="round"/>
<path d="M1206.94 84.616H1181.92V59.5977H1158.33V84.616H1133.29V108.203H1158.33V133.247H1181.92V108.203H1206.94V84.616Z" fill="black" stroke="white" stroke-width="1.50804" stroke-linecap="round" stroke-linejoin="round"/>
<path d="M505.961 307.635H490.193V291.867H475.346V307.635H459.578V322.508H475.346V338.25H490.193V322.508H505.961V307.635Z" fill="black" stroke="white" stroke-width="1.50804" stroke-linecap="round" stroke-linejoin="round"/>
<path d="M228.127 127.575H210.034V109.508H192.989V127.575H174.922V144.646H192.989V162.713H210.034V144.646H228.127V127.575Z" fill="black" stroke="white" stroke-width="1.50804" stroke-linecap="round" stroke-linejoin="round"/>
<path d="M402.343 113.852H302.858C301.15 113.852 299.766 115.236 299.766 116.944V143.419C299.766 145.126 301.15 146.511 302.858 146.511H402.343C404.051 146.511 405.436 145.126 405.436 143.419V116.944C405.436 115.236 404.051 113.852 402.343 113.852Z" fill="black" stroke="white" stroke-width="1.50804" stroke-linecap="round" stroke-linejoin="round"/>
<path d="M400.477 146.512V182.902C400.477 184.742 398.995 186.224 397.155 186.224H308.096C306.256 186.224 304.773 184.742 304.773 182.902V146.512" fill="black"/>
<path d="M400.477 146.512V182.902C400.477 184.742 398.995 186.224 397.155 186.224H308.096C306.256 186.224 304.773 184.742 304.773 182.902V146.512" stroke="white" stroke-width="1.50804" stroke-linecap="round" stroke-linejoin="round"/>
<path d="M324.882 155.79C324.882 157.936 323.145 159.7 320.972 159.7C318.826 159.7 317.062 157.962 317.062 155.79V140.176C317.062 138.029 318.8 136.266 320.972 136.266C323.119 136.266 324.882 138.003 324.882 140.176V155.79Z" fill="black"/>
<path d="M324.882 155.79C324.882 157.936 323.145 159.7 320.972 159.7C318.826 159.7 317.062 157.962 317.062 155.79V140.176C317.062 138.029 318.8 136.266 320.972 136.266C323.119 136.266 324.882 138.003 324.882 140.176V155.79Z" fill="black" stroke="white" stroke-width="1.50804" stroke-linecap="round" stroke-linejoin="round"/>
<path d="M388.125 155.79C388.125 157.936 386.387 159.7 384.215 159.7C382.068 159.7 380.305 157.962 380.305 155.79V140.176C380.305 138.029 382.042 136.266 384.215 136.266C386.361 136.266 388.125 138.003 388.125 140.176V155.79Z" fill="black"/>
<path d="M388.125 155.79C388.125 157.936 386.387 159.7 384.215 159.7C382.068 159.7 380.305 157.962 380.305 155.79V140.176C380.305 138.029 382.042 136.266 384.215 136.266C386.361 136.266 388.125 138.003 388.125 140.176V155.79Z" fill="black" stroke="white" stroke-width="1.50804" stroke-linecap="round" stroke-linejoin="round"/>
<path d="M364.598 162.535H356.446V154.383H348.754V162.535H340.602V170.227H348.754V178.379H356.446V170.227H364.598V162.535Z" fill="black"/>
<path d="M313.922 186.836V187.756C313.922 189.928 315.353 191.666 317.142 191.666H324.578C326.367 191.666 327.798 189.903 327.798 187.756V186.836H313.922Z" fill="black"/>
<path d="M377.406 186.836V187.756C377.406 189.928 378.837 191.666 380.626 191.666H388.063C389.852 191.666 391.283 189.903 391.283 187.756V186.836H377.406Z" fill="black"/>
<path d="M335.312 113.776V101.816C335.312 99.4653 337.204 97.5742 339.555 97.5742H365.621C367.972 97.5742 369.863 99.4653 369.863 101.816V113.776" fill="black"/>
<path d="M335.312 113.776V101.816C335.312 99.4653 337.204 97.5742 339.555 97.5742H365.621C367.972 97.5742 369.863 99.4653 369.863 101.816V113.776" stroke="white" stroke-width="3.01609" stroke-miterlimit="10"/>
<path d="M839.857 121.723H751.539C750.029 121.723 748.805 122.947 748.805 124.457V147.968C748.805 149.478 750.029 150.702 751.539 150.702H839.857C841.367 150.702 842.592 149.478 842.592 147.968V124.457C842.592 122.947 841.367 121.723 839.857 121.723Z" fill="black" stroke="white" stroke-width="1.50804" stroke-linecap="round" stroke-linejoin="round"/>
<path d="M838.174 150.703V183.005C838.174 184.64 836.845 185.969 835.209 185.969H756.167C754.532 185.969 753.203 184.64 753.203 183.005V150.703" fill="black"/>
<path d="M838.174 150.703V183.005C838.174 184.64 836.845 185.969 835.209 185.969H756.167C754.532 185.969 753.203 184.64 753.203 183.005V150.703" stroke="white" stroke-width="1.50804" stroke-linecap="round" stroke-linejoin="round"/>
<path d="M771.092 158.932C771.092 160.848 769.533 162.407 767.616 162.407C765.699 162.407 764.141 160.848 764.141 158.932V145.081C764.141 143.164 765.699 141.605 767.616 141.605C769.533 141.605 771.092 143.164 771.092 145.081V158.932Z" fill="black"/>
<path d="M771.092 158.932C771.092 160.848 769.533 162.407 767.616 162.407C765.699 162.407 764.141 160.848 764.141 158.932V145.081C764.141 143.164 765.699 141.605 767.616 141.605C769.533 141.605 771.092 143.164 771.092 145.081V158.932Z" fill="black" stroke="white" stroke-width="1.50804" stroke-linecap="round" stroke-linejoin="round"/>
<path d="M827.209 158.932C827.209 160.848 825.65 162.407 823.733 162.407C821.817 162.407 820.258 160.848 820.258 158.932V145.081C820.258 143.164 821.817 141.605 823.733 141.605C825.65 141.605 827.209 143.164 827.209 145.081V158.932Z" fill="black"/>
<path d="M827.209 158.932C827.209 160.848 825.65 162.407 823.733 162.407C821.817 162.407 820.258 160.848 820.258 158.932V145.081C820.258 143.164 821.817 141.605 823.733 141.605C825.65 141.605 827.209 143.164 827.209 145.081V158.932Z" fill="black" stroke="white" stroke-width="1.50804" stroke-linecap="round" stroke-linejoin="round"/>
<path d="M806.36 164.912H799.102V157.68H792.279V164.912H785.047V171.735H792.279V178.993H799.102V171.735H806.36V164.912Z" fill="black"/>
<path d="M761.383 186.477V187.294C761.383 189.211 762.661 190.77 764.245 190.77H770.838C772.423 190.77 773.7 189.211 773.7 187.294V186.477H761.383Z" fill="black"/>
<path d="M817.703 186.477V187.294C817.703 189.211 818.981 190.77 820.565 190.77H827.158C828.743 190.77 830.021 189.211 830.021 187.294V186.477H817.703Z" fill="black"/>
<path d="M780.344 121.645V111.04C780.344 108.944 782.03 107.258 784.126 107.258H807.279C809.374 107.258 811.061 108.944 811.061 111.04V121.645" fill="black"/>
<path d="M780.344 121.645V111.04C780.344 108.944 782.03 107.258 784.126 107.258H807.279C809.374 107.258 811.061 108.944 811.061 111.04V121.645" stroke="white" stroke-width="3.01609" stroke-miterlimit="10"/>
<path d="M907.843 335.949H805.52C803.77 335.949 802.352 337.368 802.352 339.118V366.36C802.352 368.11 803.77 369.529 805.52 369.529H907.843C909.593 369.529 911.012 368.11 911.012 366.36V339.118C911.012 337.368 909.593 335.949 907.843 335.949Z" fill="black" stroke="white" stroke-width="1.50804" stroke-linecap="round" stroke-linejoin="round"/>
<path d="M905.891 369.504V406.916C905.891 408.808 904.358 410.341 902.467 410.341H810.877C808.986 410.341 807.453 408.808 807.453 406.916V369.504" fill="black"/>
<path d="M905.891 369.504V406.916C905.891 408.808 904.358 410.341 902.467 410.341H810.877C808.986 410.341 807.453 408.808 807.453 406.916V369.504" stroke="white" stroke-width="1.50804" stroke-linecap="round" stroke-linejoin="round"/>
<path d="M828.188 379.061C828.188 381.284 826.4 383.073 824.176 383.073C821.953 383.073 820.164 381.284 820.164 379.061V363.012C820.164 360.789 821.953 359 824.176 359C826.4 359 828.188 360.789 828.188 363.012V379.061Z" fill="black"/>
<path d="M828.188 379.061C828.188 381.284 826.4 383.073 824.176 383.073C821.953 383.073 820.164 381.284 820.164 379.061V363.012C820.164 360.789 821.953 359 824.176 359C826.4 359 828.188 360.789 828.188 363.012V379.061Z" fill="black" stroke="white" stroke-width="1.50804" stroke-linecap="round" stroke-linejoin="round"/>
<path d="M893.196 379.061C893.196 381.284 891.407 383.073 889.184 383.073C886.961 383.073 885.172 381.284 885.172 379.061V363.012C885.172 360.789 886.961 359 889.184 359C891.407 359 893.196 360.789 893.196 363.012V379.061Z" fill="black"/>
<path d="M893.196 379.061C893.196 381.284 891.407 383.073 889.184 383.073C886.961 383.073 885.172 381.284 885.172 379.061V363.012C885.172 360.789 886.961 359 889.184 359C891.407 359 893.196 360.789 893.196 363.012V379.061Z" fill="black" stroke="white" stroke-width="1.50804" stroke-linecap="round" stroke-linejoin="round"/>
<path d="M869.022 385.988H860.615V377.605H852.718V385.988H844.336V393.884H852.718V402.292H860.615V393.884H869.022V385.988Z" fill="black"/>
<path d="M816.914 410.98V411.926C816.914 414.149 818.396 415.964 820.236 415.964H827.877C829.717 415.964 831.199 414.149 831.199 411.926V410.98H816.914Z" fill="black"/>
<path d="M882.148 410.98V411.926C882.148 414.149 883.631 415.964 885.471 415.964H893.112C894.952 415.964 896.434 414.149 896.434 411.926V410.98H882.148Z" fill="black"/>
<path d="M838.891 335.873V323.581C838.891 321.179 840.858 319.211 843.261 319.211H870.068C872.47 319.211 874.438 321.179 874.438 323.581V335.873" fill="black"/>
<path d="M838.891 335.873V323.581C838.891 321.179 840.858 319.211 843.261 319.211H870.068C872.47 319.211 874.438 321.179 874.438 323.581V335.873" stroke="white" stroke-width="3.01609" stroke-miterlimit="10"/>
<path d="M1175.27 146.738H1084.48C1082.92 146.738 1081.66 147.997 1081.66 149.549V173.724C1081.66 175.277 1082.92 176.535 1084.48 176.535H1175.27C1176.82 176.535 1178.08 175.277 1178.08 173.724V149.549C1178.08 147.997 1176.82 146.738 1175.27 146.738Z" fill="black" stroke="white" stroke-width="1.50804" stroke-linecap="round" stroke-linejoin="round"/>
<path d="M1173.53 176.539V209.735C1173.53 211.422 1172.18 212.776 1170.49 212.776H1089.23C1087.54 212.776 1086.19 211.422 1086.19 209.735V176.539" fill="black"/>
<path d="M1173.53 176.539V209.735C1173.53 211.422 1172.18 212.776 1170.49 212.776H1089.23C1087.54 212.776 1086.19 211.422 1086.19 209.735V176.539" stroke="white" stroke-width="1.50804" stroke-linecap="round" stroke-linejoin="round"/>
<path d="M1104.59 184.997C1104.59 186.965 1103 188.549 1101.04 188.549C1099.07 188.549 1097.48 186.965 1097.48 184.997V170.763C1097.48 168.795 1099.07 167.211 1101.04 167.211C1103 167.211 1104.59 168.795 1104.59 170.763V184.997Z" fill="black"/>
<path d="M1104.59 184.997C1104.59 186.965 1103 188.549 1101.04 188.549C1099.07 188.549 1097.48 186.965 1097.48 184.997V170.763C1097.48 168.795 1099.07 167.211 1101.04 167.211C1103 167.211 1104.59 168.795 1104.59 170.763V184.997Z" fill="black" stroke="white" stroke-width="1.50804" stroke-linecap="round" stroke-linejoin="round"/>
<path d="M1162.27 184.997C1162.27 186.965 1160.68 188.549 1158.72 188.549C1156.75 188.549 1155.16 186.965 1155.16 184.997V170.763C1155.16 168.795 1156.75 167.211 1158.72 167.211C1160.68 167.211 1162.27 168.795 1162.27 170.763V184.997Z" fill="black"/>
<path d="M1162.27 184.997C1162.27 186.965 1160.68 188.549 1158.72 188.549C1156.75 188.549 1155.16 186.965 1155.16 184.997V170.763C1155.16 168.795 1156.75 167.211 1158.72 167.211C1160.68 167.211 1162.27 168.795 1162.27 170.763V184.997Z" fill="black" stroke="white" stroke-width="1.50804" stroke-linecap="round" stroke-linejoin="round"/>
<path d="M1140.82 191.155H1133.39V183.719H1126.36V191.155H1118.92V198.157H1126.36V205.619H1133.39V198.157H1140.82V191.155Z" fill="black"/>
<path d="M1094.56 213.336V214.179C1094.56 216.147 1095.89 217.757 1097.5 217.757H1104.28C1105.91 217.757 1107.21 216.147 1107.21 214.179V213.336H1094.54H1094.56Z" fill="black"/>
<path d="M1152.48 213.336V214.179C1152.48 216.147 1153.81 217.757 1155.42 217.757H1162.19C1163.83 217.757 1165.13 216.147 1165.13 214.179V213.336H1152.45H1152.48Z" fill="black"/>
<path d="M1114.09 146.664V135.752C1114.09 133.605 1115.83 131.867 1117.98 131.867H1141.77C1143.92 131.867 1145.65 133.605 1145.65 135.752V146.664" fill="black"/>
<path d="M1114.09 146.664V135.752C1114.09 133.605 1115.83 131.867 1117.98 131.867H1141.77C1143.92 131.867 1145.65 133.605 1145.65 135.752V146.664" stroke="white" stroke-width="3.01609" stroke-miterlimit="10"/>
<path d="M201.275 233.414C210.237 224.453 210.237 209.922 201.275 200.961C192.313 191.999 177.783 191.999 168.821 200.961C159.859 209.922 159.859 224.453 168.821 233.414C177.783 242.376 192.313 242.376 201.275 233.414Z" fill="black"/>
<path d="M197.635 213.159H189.074V204.598H180.998V213.159H172.438V221.234H180.998V229.795H189.074V221.234H197.635V213.159Z" fill="black"/>
<path d="M222.937 217.195C222.937 238.125 185.039 286.577 185.039 286.577C185.039 286.577 147.141 238.125 147.141 217.195C147.141 196.265 164.109 179.297 185.039 179.297C205.968 179.297 222.937 196.265 222.937 217.195Z" fill="black" stroke="white" stroke-width="1.50804" stroke-linecap="round" stroke-linejoin="round"/>
<path d="M891.425 86.6483C894.175 75.0436 886.996 63.4071 875.391 60.6574C863.787 57.9078 852.15 65.0862 849.401 76.691C846.651 88.2957 853.829 99.9322 865.434 102.682C877.039 105.431 888.675 98.2531 891.425 86.6483Z" fill="black"/>
<path d="M882.319 77.8701H874.243V69.8203H866.654V77.8701H858.578V85.4855H866.654V93.5354H874.243V85.4855H882.319V77.8701Z" fill="black"/>
<path d="M906.131 81.6787C906.131 101.382 870.456 146.997 870.456 146.997C870.456 146.997 834.781 101.382 834.781 81.6787C834.781 61.9758 850.753 46.0039 870.456 46.0039C890.159 46.0039 906.131 61.9758 906.131 81.6787Z" fill="black" stroke="white" stroke-width="1.50804" stroke-linecap="round" stroke-linejoin="round"/>
<path d="M947.395 260.666C955.341 260.666 961.783 254.224 961.783 246.278C961.783 238.332 955.341 231.891 947.395 231.891C939.449 231.891 933.008 238.332 933.008 246.278C933.008 254.224 939.449 260.666 947.395 260.666Z" fill="black"/>
<path d="M955.295 243.748H949.929V238.355H944.869V243.748H939.477V248.807H944.869V254.174H949.929V248.807H955.295V243.748Z" fill="black"/>
<path d="M971.165 246.278C971.165 259.413 947.399 289.798 947.399 289.798C947.399 289.798 923.633 259.413 923.633 246.278C923.633 233.143 934.289 222.512 947.399 222.512C960.509 222.512 971.165 233.168 971.165 246.278Z" fill="black" stroke="white" stroke-width="1.50804" stroke-linecap="round" stroke-linejoin="round"/>
<path d="M1272.05 366.056C1285.36 366.056 1296.15 355.267 1296.15 341.958C1296.15 328.649 1285.36 317.859 1272.05 317.859C1258.74 317.859 1247.95 328.649 1247.95 341.958C1247.95 355.267 1258.74 366.056 1272.05 366.056Z" fill="black"/>
<path d="M1285.27 337.714H1276.3V328.719H1267.82V337.714H1258.82V346.198H1267.82V355.194H1276.3V346.198H1285.27V337.714Z" fill="black"/>
<path d="M1311.84 341.957C1311.84 363.934 1272.05 414.815 1272.05 414.815C1272.05 414.815 1232.27 363.934 1232.27 341.957C1232.27 319.98 1250.08 302.168 1272.05 302.168C1294.03 302.168 1311.84 319.98 1311.84 341.957Z" fill="black" stroke="white" stroke-width="1.50804" stroke-linecap="round" stroke-linejoin="round"/>
<path d="M815.522 249.228C818.444 236.896 810.815 224.529 798.482 221.607C786.15 218.685 773.783 226.314 770.861 238.646C767.939 250.979 775.568 263.345 787.9 266.268C800.233 269.19 812.599 261.561 815.522 249.228Z" fill="black"/>
<path d="M805.869 239.938H797.308V231.352H789.233V239.938H780.672V248.013H789.233V256.574H797.308V248.013H805.869V239.938Z" fill="black"/>
<path d="M831.171 243.976C831.171 264.906 793.273 313.358 793.273 313.358C793.273 313.358 755.375 264.906 755.375 243.976C755.375 223.047 772.344 206.078 793.273 206.078C814.203 206.078 831.171 223.047 831.171 243.976Z" fill="black" stroke="white" stroke-width="1.50804" stroke-linecap="round" stroke-linejoin="round"/>
<path d="M664.394 371.112C677.068 371.112 687.342 360.837 687.342 348.163C687.342 335.489 677.068 325.215 664.394 325.215C651.72 325.215 641.445 335.489 641.445 348.163C641.445 360.837 651.72 371.112 664.394 371.112Z" fill="black"/>
<path d="M677.002 344.127H668.441V335.566H660.366V344.127H651.805V352.203H660.366V360.764H668.441V352.203H677.002V344.127Z" fill="black"/>
<path d="M702.296 348.164C702.296 369.093 664.398 417.546 664.398 417.546C664.398 417.546 626.5 369.093 626.5 348.164C626.5 327.234 643.469 310.266 664.398 310.266C685.328 310.266 702.296 327.234 702.296 348.164Z" fill="black" stroke="white" stroke-width="1.50804" stroke-linecap="round" stroke-linejoin="round"/>
<path d="M41.2229 121.267C44.0273 109.385 36.6685 97.4792 24.7867 94.6748C12.9049 91.8704 0.999315 99.2292 -1.80506 111.111C-4.60943 122.993 2.74933 134.898 14.6312 137.703C26.513 140.507 38.4185 133.148 41.2229 121.267Z" fill="black"/>
<path d="M31.8632 112.321H23.6089V104.066H15.8402V112.321H7.58594V120.089H15.8402V128.344H23.6089V120.089H31.8632V112.321Z" fill="black"/>
<path d="M56.2195 116.204C56.2195 136.366 19.7269 183.03 19.7269 183.03C19.7269 183.03 -16.7656 136.366 -16.7656 116.204C-16.7656 96.0406 -0.410418 79.7109 19.7269 79.7109C39.8643 79.7109 56.2195 96.0662 56.2195 116.204Z" fill="black" stroke="white" stroke-width="3.77011" stroke-linecap="round" stroke-linejoin="round"/>
<path d="M194.011 308.043H112.082C110.755 308.043 109.68 309.118 109.68 310.445V414.403C109.68 415.73 110.755 416.805 112.082 416.805H194.011C195.338 416.805 196.413 415.73 196.413 414.403V310.445C196.413 309.118 195.338 308.043 194.011 308.043Z" fill="black" stroke="white" stroke-width="1.50804" stroke-linecap="round" stroke-linejoin="round"/>
<path d="M165.517 300.505C165.517 300.327 165.543 300.173 165.543 299.994C165.543 293.094 159.946 287.523 153.072 287.523C146.197 287.523 140.601 293.12 140.601 299.994C140.601 300.173 140.601 300.352 140.626 300.505H130.992V314.024H175.177V300.505H165.543H165.517Z" fill="black" stroke="white" stroke-width="1.50804" stroke-linecap="round" stroke-linejoin="round"/>
<path d="M151.105 339.299H140.551V328.719H132.015V339.299H121.461V347.834H132.015V358.388H140.551V347.834H151.105V339.299Z" fill="black"/>
<path d="M121.461 402.445H184.658" stroke="white" stroke-width="1.50804" stroke-linecap="round" stroke-linejoin="round"/>
<path d="M121.461 387.953H184.658" stroke="white" stroke-width="1.50804" stroke-linecap="round" stroke-linejoin="round"/>
<path d="M121.461 373.492H184.658" stroke="white" stroke-width="1.50804" stroke-linecap="round" stroke-linejoin="round"/>
<path d="M160.844 359.027H184.661" stroke="white" stroke-width="1.50804" stroke-linecap="round" stroke-linejoin="round"/>
<path d="M160.844 344.535H184.661" stroke="white" stroke-width="1.50804" stroke-linecap="round" stroke-linejoin="round"/>
<path d="M160.844 330.074H184.661" stroke="white" stroke-width="1.50804" stroke-linecap="round" stroke-linejoin="round"/>
<path d="M783.561 330.734H719.725C718.695 330.734 717.859 331.57 717.859 332.6V413.609C717.859 414.64 718.695 415.475 719.725 415.475H783.561C784.592 415.475 785.427 414.64 785.427 413.609V332.6C785.427 331.57 784.592 330.734 783.561 330.734Z" fill="black" stroke="white" stroke-width="1.50804" stroke-linecap="round" stroke-linejoin="round"/>
<path d="M761.357 324.858C761.357 324.73 761.357 324.603 761.357 324.449C761.357 319.083 757.012 314.738 751.646 314.738C746.279 314.738 741.935 319.083 741.935 324.449C741.935 324.577 741.935 324.73 741.935 324.858H734.422V335.387H768.844V324.858H761.331H761.357Z" fill="black" stroke="white" stroke-width="1.50804" stroke-linecap="round" stroke-linejoin="round"/>
<path d="M750.133 355.065H741.904V346.836H735.26V355.065H727.031V361.709H735.26V369.938H741.904V361.709H750.133V355.065Z" fill="black"/>
<path d="M727.031 404.258H776.276" stroke="white" stroke-width="1.50804" stroke-linecap="round" stroke-linejoin="round"/>
<path d="M727.031 392.988H776.276" stroke="white" stroke-width="1.50804" stroke-linecap="round" stroke-linejoin="round"/>
<path d="M727.031 381.719H776.276" stroke="white" stroke-width="1.50804" stroke-linecap="round" stroke-linejoin="round"/>
<path d="M757.719 370.449H776.272" stroke="white" stroke-width="1.50804" stroke-linecap="round" stroke-linejoin="round"/>
<path d="M757.719 359.152H776.272" stroke="white" stroke-width="1.50804" stroke-linecap="round" stroke-linejoin="round"/>
<path d="M757.719 347.883H776.272" stroke="white" stroke-width="1.50804" stroke-linecap="round" stroke-linejoin="round"/>
<path d="M279.438 114.77H242.383V205.158H279.438V114.77Z" fill="black" stroke="white" stroke-width="1.50804" stroke-linecap="round" stroke-linejoin="round"/>
<path d="M270.672 114.771V102.633H251.148V114.771" fill="black"/>
<path d="M270.672 114.771V102.633H251.148V114.771" stroke="white" stroke-width="1.50804" stroke-linecap="round" stroke-linejoin="round"/>
<path d="M252.07 205.156V226.52" stroke="white" stroke-width="1.50804" stroke-linecap="round" stroke-linejoin="round"/>
<path d="M269.727 226.52V205.156" stroke="white" stroke-width="1.50804" stroke-linecap="round" stroke-linejoin="round"/>
<path d="M260.914 102.631V73.4727" stroke="white" stroke-width="1.50804" stroke-linecap="round" stroke-linejoin="round"/>
<path d="M242.383 226.523H279.438" stroke="white" stroke-width="1.50804" stroke-linecap="round" stroke-linejoin="round"/>
<path d="M242.383 125.859H262.929" stroke="white" stroke-width="1.50804" stroke-linecap="round" stroke-linejoin="round"/>
<path d="M242.383 134.574H255.135" stroke="white" stroke-width="1.50804" stroke-linecap="round" stroke-linejoin="round"/>
<path d="M242.383 143.289H255.135" stroke="white" stroke-width="1.50804" stroke-linecap="round" stroke-linejoin="round"/>
<path d="M242.383 152.004H262.929" stroke="white" stroke-width="1.50804" stroke-linecap="round" stroke-linejoin="round"/>
<path d="M242.383 160.742H255.135" stroke="white" stroke-width="1.50804" stroke-linecap="round" stroke-linejoin="round"/>
<path d="M242.383 169.457H255.135" stroke="white" stroke-width="1.50804" stroke-linecap="round" stroke-linejoin="round"/>
<path d="M242.383 178.172H262.929" stroke="white" stroke-width="1.50804" stroke-linecap="round" stroke-linejoin="round"/>
<path d="M242.383 186.887H255.135" stroke="white" stroke-width="1.50804" stroke-linecap="round" stroke-linejoin="round"/>
<path d="M242.383 195.602H255.135" stroke="white" stroke-width="1.50804" stroke-linecap="round" stroke-linejoin="round"/>
<path d="M883.512 200.125H849.422V283.255H883.512V200.125Z" fill="black" stroke="white" stroke-width="1.50804" stroke-linecap="round" stroke-linejoin="round"/>
<path d="M875.465 200.122V188.98H857.5V200.122" fill="black"/>
<path d="M875.465 200.122V188.98H857.5V200.122" stroke="white" stroke-width="1.50804" stroke-linecap="round" stroke-linejoin="round"/>
<path d="M858.336 283.254V302.931" stroke="white" stroke-width="1.50804" stroke-linecap="round" stroke-linejoin="round"/>
<path d="M874.586 302.931V283.254" stroke="white" stroke-width="1.50804" stroke-linecap="round" stroke-linejoin="round"/>
<path d="M866.469 188.981V162.148" stroke="white" stroke-width="1.50804" stroke-linecap="round" stroke-linejoin="round"/>
<path d="M849.422 302.93H883.512" stroke="white" stroke-width="1.50804" stroke-linecap="round" stroke-linejoin="round"/>
<path d="M849.422 210.344H868.333" stroke="white" stroke-width="1.50804" stroke-linecap="round" stroke-linejoin="round"/>
<path d="M849.422 218.344H861.152" stroke="white" stroke-width="1.50804" stroke-linecap="round" stroke-linejoin="round"/>
<path d="M849.422 226.367H861.152" stroke="white" stroke-width="1.50804" stroke-linecap="round" stroke-linejoin="round"/>
<path d="M849.422 234.391H868.333" stroke="white" stroke-width="1.50804" stroke-linecap="round" stroke-linejoin="round"/>
<path d="M849.422 242.418H861.152" stroke="white" stroke-width="1.50804" stroke-linecap="round" stroke-linejoin="round"/>
<path d="M849.422 250.414H861.152" stroke="white" stroke-width="1.50804" stroke-linecap="round" stroke-linejoin="round"/>
<path d="M849.422 258.441H868.333" stroke="white" stroke-width="1.50804" stroke-linecap="round" stroke-linejoin="round"/>
<path d="M849.422 266.465H861.152" stroke="white" stroke-width="1.50804" stroke-linecap="round" stroke-linejoin="round"/>
<path d="M849.422 274.461H861.152" stroke="white" stroke-width="1.50804" stroke-linecap="round" stroke-linejoin="round"/>
<path d="M1063.47 99.0039H1029.38V182.134H1063.47V99.0039Z" fill="black" stroke="white" stroke-width="1.50804" stroke-linecap="round" stroke-linejoin="round"/>
<path d="M1055.4 99.0014V87.8594H1037.44V99.0014" fill="black"/>
<path d="M1055.4 99.0014V87.8594H1037.44V99.0014" stroke="white" stroke-width="1.50804" stroke-linecap="round" stroke-linejoin="round"/>
<path d="M1038.3 182.133V201.81" stroke="white" stroke-width="1.50804" stroke-linecap="round" stroke-linejoin="round"/>
<path d="M1054.55 201.81V182.133" stroke="white" stroke-width="1.50804" stroke-linecap="round" stroke-linejoin="round"/>
<path d="M1046.43 87.8601V61.0273" stroke="white" stroke-width="1.50804" stroke-linecap="round" stroke-linejoin="round"/>
<path d="M1029.38 201.809H1063.47" stroke="white" stroke-width="1.50804" stroke-linecap="round" stroke-linejoin="round"/>
<path d="M1029.38 109.223H1048.29" stroke="white" stroke-width="1.50804" stroke-linecap="round" stroke-linejoin="round"/>
<path d="M1029.38 117.223H1041.11" stroke="white" stroke-width="1.50804" stroke-linecap="round" stroke-linejoin="round"/>
<path d="M1029.38 125.246H1041.11" stroke="white" stroke-width="1.50804" stroke-linecap="round" stroke-linejoin="round"/>
<path d="M1029.38 133.27H1048.29" stroke="white" stroke-width="1.50804" stroke-linecap="round" stroke-linejoin="round"/>
<path d="M1029.38 141.27H1041.11" stroke="white" stroke-width="1.50804" stroke-linecap="round" stroke-linejoin="round"/>
<path d="M1029.38 149.293H1041.11" stroke="white" stroke-width="1.50804" stroke-linecap="round" stroke-linejoin="round"/>
<path d="M1029.38 157.32H1048.29" stroke="white" stroke-width="1.50804" stroke-linecap="round" stroke-linejoin="round"/>
<path d="M1029.38 165.344H1041.11" stroke="white" stroke-width="1.50804" stroke-linecap="round" stroke-linejoin="round"/>
<path d="M1029.38 173.34H1041.11" stroke="white" stroke-width="1.50804" stroke-linecap="round" stroke-linejoin="round"/>
<path d="M1218.9 220.109H1189.56V291.663H1218.9V220.109Z" fill="black" stroke="white" stroke-width="1.50804" stroke-linecap="round" stroke-linejoin="round"/>
<path d="M1211.95 220.109V210.5H1196.49V220.109" fill="black"/>
<path d="M1211.95 220.109V210.5H1196.49V220.109" stroke="white" stroke-width="1.50804" stroke-linecap="round" stroke-linejoin="round"/>
<path d="M1197.23 291.664V308.581" stroke="white" stroke-width="1.50804" stroke-linecap="round" stroke-linejoin="round"/>
<path d="M1211.22 308.581V291.664" stroke="white" stroke-width="1.50804" stroke-linecap="round" stroke-linejoin="round"/>
<path d="M1204.23 210.5V187.398" stroke="white" stroke-width="1.50804" stroke-linecap="round" stroke-linejoin="round"/>
<path d="M1189.56 308.582H1218.9" stroke="white" stroke-width="1.50804" stroke-linecap="round" stroke-linejoin="round"/>
<path d="M1189.56 228.898H1205.84" stroke="white" stroke-width="1.50804" stroke-linecap="round" stroke-linejoin="round"/>
<path d="M1189.56 235.801H1199.66" stroke="white" stroke-width="1.50804" stroke-linecap="round" stroke-linejoin="round"/>
<path d="M1189.56 242.699H1199.66" stroke="white" stroke-width="1.50804" stroke-linecap="round" stroke-linejoin="round"/>
<path d="M1189.56 249.598H1205.84" stroke="white" stroke-width="1.50804" stroke-linecap="round" stroke-linejoin="round"/>
<path d="M1189.56 256.5H1199.66" stroke="white" stroke-width="1.50804" stroke-linecap="round" stroke-linejoin="round"/>
<path d="M1189.56 263.398H1199.66" stroke="white" stroke-width="1.50804" stroke-linecap="round" stroke-linejoin="round"/>
<path d="M1189.56 270.301H1205.84" stroke="white" stroke-width="1.50804" stroke-linecap="round" stroke-linejoin="round"/>
<path d="M1189.56 277.199H1199.66" stroke="white" stroke-width="1.50804" stroke-linecap="round" stroke-linejoin="round"/>
<path d="M1189.56 284.098H1199.66" stroke="white" stroke-width="1.50804" stroke-linecap="round" stroke-linejoin="round"/>
<path d="M639.359 50.7812H602.305V141.169H639.359V50.7812Z" fill="black" stroke="white" stroke-width="1.50804" stroke-linecap="round" stroke-linejoin="round"/>
<path d="M630.612 50.7832V38.6445H611.062V50.7832" fill="black"/>
<path d="M630.612 50.7832V38.6445H611.062V50.7832" stroke="white" stroke-width="1.50804" stroke-linecap="round" stroke-linejoin="round"/>
<path d="M612.016 141.168V162.532" stroke="white" stroke-width="1.50804" stroke-linecap="round" stroke-linejoin="round"/>
<path d="M629.672 162.532V141.168" stroke="white" stroke-width="1.50804" stroke-linecap="round" stroke-linejoin="round"/>
<path d="M620.852 38.6427V9.48438" stroke="white" stroke-width="1.50804" stroke-linecap="round" stroke-linejoin="round"/>
<path d="M602.305 162.535H639.385" stroke="white" stroke-width="1.50804" stroke-linecap="round" stroke-linejoin="round"/>
<path d="M602.305 61.8711H622.877" stroke="white" stroke-width="1.50804" stroke-linecap="round" stroke-linejoin="round"/>
<path d="M602.305 70.5859H615.082" stroke="white" stroke-width="1.50804" stroke-linecap="round" stroke-linejoin="round"/>
<path d="M602.305 79.3008H615.082" stroke="white" stroke-width="1.50804" stroke-linecap="round" stroke-linejoin="round"/>
<path d="M602.305 88.0156H622.877" stroke="white" stroke-width="1.50804" stroke-linecap="round" stroke-linejoin="round"/>
<path d="M602.305 96.7539H615.082" stroke="white" stroke-width="1.50804" stroke-linecap="round" stroke-linejoin="round"/>
<path d="M602.305 105.469H615.082" stroke="white" stroke-width="1.50804" stroke-linecap="round" stroke-linejoin="round"/>
<path d="M602.305 114.184H622.877" stroke="white" stroke-width="1.50804" stroke-linecap="round" stroke-linejoin="round"/>
<path d="M602.305 122.898H615.082" stroke="white" stroke-width="1.50804" stroke-linecap="round" stroke-linejoin="round"/>
<path d="M602.305 131.613H615.082" stroke="white" stroke-width="1.50804" stroke-linecap="round" stroke-linejoin="round"/>
<path d="M148.391 48.1237V8.59013C148.391 4.70577 145.248 1.5625 141.364 1.5625C137.479 1.5625 134.336 4.70577 134.336 8.59013V48.1493L125.188 64.1467V160.694C125.188 169.536 132.522 176.691 141.364 176.691C150.206 176.691 157.54 169.536 157.54 160.694V64.1212L148.391 48.1237Z" fill="black" stroke="white" stroke-width="1.50804" stroke-linecap="round" stroke-linejoin="round"/>
<path d="M141.367 69.4102V161.613" stroke="white" stroke-width="1.50804" stroke-linecap="round" stroke-linejoin="round"/>
<path d="M126.297 75.3398H133.887" stroke="white" stroke-width="1.50804" stroke-linecap="round" stroke-linejoin="round"/>
<path d="M126.297 87.7344H133.887" stroke="white" stroke-width="1.50804" stroke-linecap="round" stroke-linejoin="round"/>
<path d="M126.297 100.152H133.887" stroke="white" stroke-width="1.50804" stroke-linecap="round" stroke-linejoin="round"/>
<path d="M126.297 112.547H133.887" stroke="white" stroke-width="1.50804" stroke-linecap="round" stroke-linejoin="round"/>
<path d="M126.297 124.941H133.887" stroke="white" stroke-width="1.50804" stroke-linecap="round" stroke-linejoin="round"/>
<path d="M126.297 137.363H133.887" stroke="white" stroke-width="1.50804" stroke-linecap="round" stroke-linejoin="round"/>
<path d="M126.297 149.758H133.887" stroke="white" stroke-width="1.50804" stroke-linecap="round" stroke-linejoin="round"/>
<path d="M446.548 116.278V76.719C446.548 72.8347 443.404 69.6914 439.52 69.6914C435.636 69.6914 432.492 72.8347 432.492 76.719V116.278L423.344 132.276V228.823C423.344 237.665 430.678 244.82 439.52 244.82C448.362 244.82 455.696 237.665 455.696 228.823V132.276L446.548 116.278Z" fill="black" stroke="white" stroke-width="1.50804" stroke-linecap="round" stroke-linejoin="round"/>
<path d="M439.516 137.566V229.743" stroke="white" stroke-width="1.50804" stroke-linecap="round" stroke-linejoin="round"/>
<path d="M424.422 143.469H432.037" stroke="white" stroke-width="1.50804" stroke-linecap="round" stroke-linejoin="round"/>
<path d="M424.422 155.887H432.037" stroke="white" stroke-width="1.50804" stroke-linecap="round" stroke-linejoin="round"/>
<path d="M424.422 168.281H432.037" stroke="white" stroke-width="1.50804" stroke-linecap="round" stroke-linejoin="round"/>
<path d="M424.422 180.703H432.037" stroke="white" stroke-width="1.50804" stroke-linecap="round" stroke-linejoin="round"/>
<path d="M424.422 193.098H432.037" stroke="white" stroke-width="1.50804" stroke-linecap="round" stroke-linejoin="round"/>
<path d="M424.422 205.516H432.037" stroke="white" stroke-width="1.50804" stroke-linecap="round" stroke-linejoin="round"/>
<path d="M424.422 217.91H432.037" stroke="white" stroke-width="1.50804" stroke-linecap="round" stroke-linejoin="round"/>
<path d="M902.755 211.677V240.043C902.755 242.829 905.004 245.077 907.79 245.077C910.575 245.077 912.824 242.829 912.824 240.043V211.677L919.392 200.203V130.974C919.392 124.637 914.127 119.5 907.79 119.5C901.452 119.5 896.188 124.637 896.188 130.974V200.203L902.755 211.677Z" fill="black" stroke="white" stroke-width="1.50804" stroke-linecap="round" stroke-linejoin="round"/>
<path d="M907.766 196.419V130.309" stroke="white" stroke-width="1.50804" stroke-linecap="round" stroke-linejoin="round"/>
<path d="M918.602 192.18H913.133" stroke="white" stroke-width="1.50804" stroke-linecap="round" stroke-linejoin="round"/>
<path d="M918.602 183.285H913.133" stroke="white" stroke-width="1.50804" stroke-linecap="round" stroke-linejoin="round"/>
<path d="M918.602 174.391H913.133" stroke="white" stroke-width="1.50804" stroke-linecap="round" stroke-linejoin="round"/>
<path d="M918.602 165.5H913.133" stroke="white" stroke-width="1.50804" stroke-linecap="round" stroke-linejoin="round"/>
<path d="M918.602 156.605H913.133" stroke="white" stroke-width="1.50804" stroke-linecap="round" stroke-linejoin="round"/>
<path d="M918.602 147.711H913.133" stroke="white" stroke-width="1.50804" stroke-linecap="round" stroke-linejoin="round"/>
<path d="M918.602 138.82H913.133" stroke="white" stroke-width="1.50804" stroke-linecap="round" stroke-linejoin="round"/>
<path d="M1003.34 128.853V95.1205C1003.34 91.8239 1000.66 89.1406 997.36 89.1406C994.064 89.1406 991.38 91.8239 991.38 95.1205V128.853L983.586 142.5V224.838C983.586 232.377 989.847 238.484 997.386 238.484C1004.92 238.484 1011.19 232.377 1011.19 224.838V142.5L1003.39 128.853H1003.34Z" fill="black" stroke="white" stroke-width="1.50804" stroke-linecap="round" stroke-linejoin="round"/>
<path d="M997.359 146.996V225.629" stroke="white" stroke-width="1.50804" stroke-linecap="round" stroke-linejoin="round"/>
<path d="M984.484 152.031H990.975" stroke="white" stroke-width="1.50804" stroke-linecap="round" stroke-linejoin="round"/>
<path d="M984.484 162.609H990.975" stroke="white" stroke-width="1.50804" stroke-linecap="round" stroke-linejoin="round"/>
<path d="M984.484 173.191H990.975" stroke="white" stroke-width="1.50804" stroke-linecap="round" stroke-linejoin="round"/>
<path d="M984.484 183.797H990.975" stroke="white" stroke-width="1.50804" stroke-linecap="round" stroke-linejoin="round"/>
<path d="M984.484 194.375H990.975" stroke="white" stroke-width="1.50804" stroke-linecap="round" stroke-linejoin="round"/>
<path d="M984.484 204.957H990.975" stroke="white" stroke-width="1.50804" stroke-linecap="round" stroke-linejoin="round"/>
<path d="M984.484 215.535H990.975" stroke="white" stroke-width="1.50804" stroke-linecap="round" stroke-linejoin="round"/>
<path d="M1173.28 260.256V235.979C1173.28 233.602 1171.37 231.66 1168.96 231.66C1166.56 231.66 1164.65 233.577 1164.65 235.979V260.256L1159.02 270.069V329.306C1159.02 334.724 1163.52 339.119 1168.94 339.119C1174.36 339.119 1178.85 334.724 1178.85 329.306V270.069L1173.23 260.256H1173.28Z" fill="black" stroke="white" stroke-width="1.50804" stroke-linecap="round" stroke-linejoin="round"/>
<path d="M1168.97 273.289V329.868" stroke="white" stroke-width="1.50804" stroke-linecap="round" stroke-linejoin="round"/>
<path d="M1159.71 276.945H1164.36" stroke="white" stroke-width="1.50804" stroke-linecap="round" stroke-linejoin="round"/>
<path d="M1159.71 284.535H1164.36" stroke="white" stroke-width="1.50804" stroke-linecap="round" stroke-linejoin="round"/>
<path d="M1159.71 292.148H1164.36" stroke="white" stroke-width="1.50804" stroke-linecap="round" stroke-linejoin="round"/>
<path d="M1159.71 299.766H1164.36" stroke="white" stroke-width="1.50804" stroke-linecap="round" stroke-linejoin="round"/>
<path d="M1159.71 307.379H1164.36" stroke="white" stroke-width="1.50804" stroke-linecap="round" stroke-linejoin="round"/>
<path d="M1159.71 314.996H1164.36" stroke="white" stroke-width="1.50804" stroke-linecap="round" stroke-linejoin="round"/>
<path d="M1159.71 322.609H1164.36" stroke="white" stroke-width="1.50804" stroke-linecap="round" stroke-linejoin="round"/>
<path d="M344.716 274.361H336.206V265.852H328.182V274.361H319.672V282.36H328.182V290.87H336.206V282.36H344.716V274.361Z" fill="black"/>
<path d="M354.173 242.957H310.219C302.668 242.957 296.547 249.078 296.547 256.629V301.708C296.547 309.259 302.668 315.38 310.219 315.38H354.173C361.724 315.38 367.845 309.259 367.845 301.708V256.629C367.845 249.078 361.724 242.957 354.173 242.957Z" fill="black" stroke="white" stroke-width="1.50804" stroke-linecap="round" stroke-linejoin="round"/>
<path d="M354.102 228.645V242.138" stroke="white" stroke-width="1.50804" stroke-linecap="round" stroke-linejoin="round"/>
<path d="M310.297 242.138V228.645" stroke="white" stroke-width="1.50804" stroke-linecap="round" stroke-linejoin="round"/>
<path d="M359.79 209.504H304.617V228.645H359.79V209.504Z" fill="black" stroke="white" stroke-width="1.50804" stroke-linecap="round" stroke-linejoin="round"/>
<path d="M296.547 258.75H367.845" stroke="white" stroke-width="1.50804" stroke-linecap="round" stroke-linejoin="round"/>
<path d="M296.547 299.586H367.845" stroke="white" stroke-width="1.50804" stroke-linecap="round" stroke-linejoin="round"/>
<path d="M315.297 209.504V228.134" stroke="white" stroke-width="1.50804" stroke-linecap="round" stroke-linejoin="round"/>
<path d="M326.57 209.504V228.134" stroke="white" stroke-width="1.50804" stroke-linecap="round" stroke-linejoin="round"/>
<path d="M337.812 209.504V228.134" stroke="white" stroke-width="1.50804" stroke-linecap="round" stroke-linejoin="round"/>
<path d="M349.086 209.504V228.134" stroke="white" stroke-width="1.50804" stroke-linecap="round" stroke-linejoin="round"/>
<path d="M702.653 146.279H694.143V137.77H686.119V146.279H677.609V154.304H686.119V162.813H694.143V154.304H702.653V146.279Z" fill="black"/>
<path d="M712.111 114.875H668.156C660.606 114.875 654.484 120.996 654.484 128.547V173.626C654.484 181.177 660.606 187.298 668.156 187.298H712.111C719.662 187.298 725.783 181.177 725.783 173.626V128.547C725.783 120.996 719.662 114.875 712.111 114.875Z" fill="black" stroke="white" stroke-width="1.50804" stroke-linecap="round" stroke-linejoin="round"/>
<path d="M712.039 100.562V114.081" stroke="white" stroke-width="1.50804" stroke-linecap="round" stroke-linejoin="round"/>
<path d="M668.234 114.081V100.562" stroke="white" stroke-width="1.50804" stroke-linecap="round" stroke-linejoin="round"/>
<path d="M717.705 81.4219H662.531V100.563H717.705V81.4219Z" fill="black" stroke="white" stroke-width="1.50804" stroke-linecap="round" stroke-linejoin="round"/>
<path d="M654.484 130.668H725.783" stroke="white" stroke-width="1.50804" stroke-linecap="round" stroke-linejoin="round"/>
<path d="M654.484 171.504H725.783" stroke="white" stroke-width="1.50804" stroke-linecap="round" stroke-linejoin="round"/>
<path d="M673.234 81.4219V100.051" stroke="white" stroke-width="1.50804" stroke-linecap="round" stroke-linejoin="round"/>
<path d="M684.508 81.4219V100.051" stroke="white" stroke-width="1.50804" stroke-linecap="round" stroke-linejoin="round"/>
<path d="M695.75 81.4219V100.051" stroke="white" stroke-width="1.50804" stroke-linecap="round" stroke-linejoin="round"/>
<path d="M707.023 81.4219V100.051" stroke="white" stroke-width="1.50804" stroke-linecap="round" stroke-linejoin="round"/>
<path d="M591.114 373.209H582.604V364.699H574.58V373.209H566.07V381.208H574.58V389.718H582.604V381.208H591.114V373.209Z" fill="black"/>
<path d="M600.564 341.805H556.609C549.059 341.805 542.938 347.926 542.938 355.477V400.556C542.938 408.106 549.059 414.228 556.609 414.228H600.564C608.115 414.228 614.236 408.106 614.236 400.556V355.477C614.236 347.926 608.115 341.805 600.564 341.805Z" fill="black" stroke="white" stroke-width="1.50804" stroke-linecap="round" stroke-linejoin="round"/>
<path d="M600.492 327.492V340.985" stroke="white" stroke-width="1.50804" stroke-linecap="round" stroke-linejoin="round"/>
<path d="M556.688 340.985V327.492" stroke="white" stroke-width="1.50804" stroke-linecap="round" stroke-linejoin="round"/>
<path d="M606.189 308.352H551.016V327.492H606.189V308.352Z" fill="black" stroke="white" stroke-width="1.50804" stroke-linecap="round" stroke-linejoin="round"/>
<path d="M542.938 357.598H614.236" stroke="white" stroke-width="1.50804" stroke-linecap="round" stroke-linejoin="round"/>
<path d="M542.938 398.434H614.236" stroke="white" stroke-width="1.50804" stroke-linecap="round" stroke-linejoin="round"/>
<path d="M561.695 308.352V326.981" stroke="white" stroke-width="1.50804" stroke-linecap="round" stroke-linejoin="round"/>
<path d="M572.969 308.352V326.981" stroke="white" stroke-width="1.50804" stroke-linecap="round" stroke-linejoin="round"/>
<path d="M584.211 308.352V326.981" stroke="white" stroke-width="1.50804" stroke-linecap="round" stroke-linejoin="round"/>
<path d="M595.484 308.352V326.981" stroke="white" stroke-width="1.50804" stroke-linecap="round" stroke-linejoin="round"/>
<path d="M1122.61 297.283H1114.1V288.773H1106.07V297.283H1097.56V305.282H1106.07V313.792H1114.1V305.282H1122.61V297.283Z" fill="black"/>
<path d="M1132.06 265.879H1088.11C1080.56 265.879 1074.44 272 1074.44 279.551V324.63C1074.44 332.181 1080.56 338.302 1088.11 338.302H1132.06C1139.61 338.302 1145.74 332.181 1145.74 324.63V279.551C1145.74 272 1139.61 265.879 1132.06 265.879Z" fill="black" stroke="white" stroke-width="1.50804" stroke-linecap="round" stroke-linejoin="round"/>
<path d="M1131.99 251.566V265.059" stroke="white" stroke-width="1.50804" stroke-linecap="round" stroke-linejoin="round"/>
<path d="M1088.19 265.059V251.566" stroke="white" stroke-width="1.50804" stroke-linecap="round" stroke-linejoin="round"/>
<path d="M1137.69 232.426H1082.52V251.567H1137.69V232.426Z" fill="black" stroke="white" stroke-width="1.50804" stroke-linecap="round" stroke-linejoin="round"/>
<path d="M1074.44 281.672H1145.74" stroke="white" stroke-width="1.50804" stroke-linecap="round" stroke-linejoin="round"/>
<path d="M1074.44 322.508H1145.74" stroke="white" stroke-width="1.50804" stroke-linecap="round" stroke-linejoin="round"/>
<path d="M1093.2 232.426V251.055" stroke="white" stroke-width="1.50804" stroke-linecap="round" stroke-linejoin="round"/>
<path d="M1104.46 232.426V251.055" stroke="white" stroke-width="1.50804" stroke-linecap="round" stroke-linejoin="round"/>
<path d="M1115.71 232.426V251.055" stroke="white" stroke-width="1.50804" stroke-linecap="round" stroke-linejoin="round"/>
<path d="M1126.98 232.426V251.055" stroke="white" stroke-width="1.50804" stroke-linecap="round" stroke-linejoin="round"/>
<path d="M957.307 80.7309H950.561V73.9844H944.223V80.7309H937.477V87.0685H944.223V93.7895H950.561V87.0685H957.307V80.7309Z" fill="black"/>
<path d="M964.778 55.8672H930.023C924.039 55.8672 919.188 60.7183 919.188 66.7025V102.352C919.188 108.336 924.039 113.187 930.023 113.187H964.778C970.762 113.187 975.613 108.336 975.613 102.352V66.7025C975.613 60.7183 970.762 55.8672 964.778 55.8672Z" fill="black" stroke="white" stroke-width="1.50804" stroke-linecap="round" stroke-linejoin="round"/>
<path d="M964.719 44.543V55.225" stroke="white" stroke-width="1.50804" stroke-linecap="round" stroke-linejoin="round"/>
<path d="M930.07 55.225V44.543" stroke="white" stroke-width="1.50804" stroke-linecap="round" stroke-linejoin="round"/>
<path d="M969.252 29.3906H925.578V44.5448H969.252V29.3906Z" fill="black" stroke="white" stroke-width="1.50804" stroke-linecap="round" stroke-linejoin="round"/>
<path d="M919.188 68.3633H975.613" stroke="white" stroke-width="1.50804" stroke-linecap="round" stroke-linejoin="round"/>
<path d="M919.188 100.691H975.613" stroke="white" stroke-width="1.50804" stroke-linecap="round" stroke-linejoin="round"/>
<path d="M934.031 29.3906V44.1359" stroke="white" stroke-width="1.50804" stroke-linecap="round" stroke-linejoin="round"/>
<path d="M942.953 29.3906V44.1359" stroke="white" stroke-width="1.50804" stroke-linecap="round" stroke-linejoin="round"/>
<path d="M951.844 29.3906V44.1359" stroke="white" stroke-width="1.50804" stroke-linecap="round" stroke-linejoin="round"/>
<path d="M960.766 29.3906V44.1359" stroke="white" stroke-width="1.50804" stroke-linecap="round" stroke-linejoin="round"/>
<path d="M319.586 336.742H233.466C226.197 336.742 220.305 342.634 220.305 349.903V402.291C220.305 409.559 226.197 415.452 233.466 415.452H319.586C326.854 415.452 332.747 409.559 332.747 402.291V349.903C332.747 342.634 326.854 336.742 319.586 336.742Z" fill="black" stroke="white" stroke-width="1.50804" stroke-linecap="round" stroke-linejoin="round"/>
<path d="M220.305 382.229H247.163L261.525 365.26V395.466L276.526 376.402V395.466L294.644 363.676L299.014 382.229H332.133" fill="black"/>
<path d="M220.305 382.229H247.163L261.525 365.26V395.466L276.526 376.402V395.466L294.644 363.676L299.014 382.229H332.133" stroke="white" stroke-width="1.50804" stroke-linecap="round" stroke-linejoin="round"/>
<path d="M318.663 346.351C314.6 345.968 313.194 349.776 313.194 349.776C313.194 349.776 311.789 345.968 307.726 346.351C303.995 346.709 302.385 350.645 304.582 354.682C307.189 359.461 313.194 363.678 313.194 363.678C313.194 363.678 319.174 359.435 321.806 354.682C324.03 350.645 322.42 346.709 318.663 346.351Z" fill="black"/>
<path d="M231.555 390.969H244.358" stroke="white" stroke-width="1.50804" stroke-linecap="round" stroke-linejoin="round"/>
<path d="M231.758 398.434H250.387" stroke="white" stroke-width="1.50804" stroke-linecap="round" stroke-linejoin="round"/>
<path d="M231.648 405.918H247.365" stroke="white" stroke-width="1.50804" stroke-linecap="round" stroke-linejoin="round"/>
<path d="M1136.61 351.613H1066.77C1060.87 351.613 1056.09 356.396 1056.09 362.295V404.768C1056.09 410.667 1060.87 415.45 1066.77 415.45H1136.61C1142.51 415.45 1147.29 410.667 1147.29 404.768V362.295C1147.29 356.396 1142.51 351.613 1136.61 351.613Z" fill="black" stroke="white" stroke-width="1.50804" stroke-linecap="round" stroke-linejoin="round"/>
<path d="M1056.09 388.487H1077.86L1089.54 374.739V399.246L1101.68 383.76V399.246L1116.37 373.461L1119.92 388.487H1146.78" fill="black"/>
<path d="M1056.09 388.487H1077.86L1089.54 374.739V399.246L1101.68 383.76V399.246L1116.37 373.461L1119.92 388.487H1146.78" stroke="white" stroke-width="1.50804" stroke-linecap="round" stroke-linejoin="round"/>
<path d="M1135.87 359.408C1132.57 359.075 1131.42 362.193 1131.42 362.193C1131.42 362.193 1130.27 359.101 1126.98 359.408C1123.94 359.714 1122.63 362.909 1124.45 366.154C1126.57 370.013 1131.42 373.463 1131.42 373.463C1131.42 373.463 1136.28 370.038 1138.4 366.154C1140.19 362.883 1138.89 359.689 1135.87 359.408Z" fill="black"/>
<path d="M1065.2 395.594H1075.58" stroke="white" stroke-width="1.50804" stroke-linecap="round" stroke-linejoin="round"/>
<path d="M1065.37 401.648H1080.5" stroke="white" stroke-width="1.50804" stroke-linecap="round" stroke-linejoin="round"/>
<path d="M1065.28 407.707H1078.03" stroke="white" stroke-width="1.50804" stroke-linecap="round" stroke-linejoin="round"/>
<path d="M572.938 108.688H486.817C479.549 108.688 473.656 114.58 473.656 121.848V174.236C473.656 181.505 479.549 187.397 486.817 187.397H572.938C580.206 187.397 586.098 181.505 586.098 174.236V121.848C586.098 114.58 580.206 108.688 572.938 108.688Z" fill="black" stroke="white" stroke-width="1.50804" stroke-linecap="round" stroke-linejoin="round"/>
<path d="M473.656 154.151H500.515L514.877 137.208V167.414L529.877 148.324V167.414L547.97 135.598L552.366 154.151H585.459" fill="black"/>
<path d="M473.656 154.151H500.515L514.877 137.208V167.414L529.877 148.324V167.414L547.97 135.598L552.366 154.151H585.459" stroke="white" stroke-width="1.50804" stroke-linecap="round" stroke-linejoin="round"/>
<path d="M571.991 118.269C567.928 117.886 566.522 121.694 566.522 121.694C566.522 121.694 565.117 117.886 561.054 118.269C557.323 118.627 555.713 122.563 557.91 126.6C560.517 131.379 566.522 135.596 566.522 135.596C566.522 135.596 572.502 131.353 575.134 126.6C577.358 122.563 575.748 118.627 571.991 118.269Z" fill="black"/>
<path d="M484.898 162.891H497.676" stroke="white" stroke-width="1.50804" stroke-linecap="round" stroke-linejoin="round"/>
<path d="M485.086 170.379H503.741" stroke="white" stroke-width="1.50804" stroke-linecap="round" stroke-linejoin="round"/>
<path d="M484.977 177.84H500.693" stroke="white" stroke-width="1.50804" stroke-linecap="round" stroke-linejoin="round"/>
<path d="M130.835 246.765C122.223 245.972 119.233 253.613 119.233 253.613C119.233 253.613 116.218 245.972 107.631 246.765C99.6838 247.506 96.285 255.377 100.987 263.427C106.558 272.959 119.259 281.417 119.259 281.417C119.259 281.417 131.96 272.959 137.531 263.427C142.233 255.377 138.834 247.48 130.886 246.765H130.835Z" fill="black" stroke="white" stroke-width="1.50804" stroke-linecap="round" stroke-linejoin="round"/>
<path d="M1006.77 359.792C998.153 359 995.163 366.641 995.163 366.641C995.163 366.641 992.148 359 983.561 359.792C975.613 360.533 972.215 368.404 976.917 376.454C982.488 385.986 995.189 394.445 995.189 394.445C995.189 394.445 1007.89 385.986 1013.46 376.454C1018.16 368.404 1014.76 360.508 1006.82 359.792H1006.77Z" fill="black" stroke="white" stroke-width="1.50804" stroke-linecap="round" stroke-linejoin="round"/>
<path d="M602.849 250.161C591.886 249.139 588.027 258.875 588.027 258.875C588.027 258.875 584.194 249.139 573.205 250.161C563.06 251.107 558.716 261.15 564.721 271.423C571.825 283.587 588.027 294.371 588.027 294.371C588.027 294.371 604.229 283.587 611.333 271.423C617.313 261.15 612.995 251.081 602.849 250.161Z" fill="black" stroke="white" stroke-width="1.50804" stroke-linecap="round" stroke-linejoin="round"/>
<path d="M1102.28 105.468C1094.8 104.778 1092.16 111.423 1092.16 111.423C1092.16 111.423 1089.53 104.778 1082.05 105.468C1075.12 106.107 1072.16 112.981 1076.24 119.983C1081.1 128.289 1092.16 135.674 1092.16 135.674C1092.16 135.674 1103.23 128.289 1108.09 119.983C1112.17 112.956 1109.21 106.082 1102.28 105.468Z" fill="black" stroke="white" stroke-width="1.50804" stroke-linecap="round" stroke-linejoin="round"/>
<path d="M281.101 241.142C276.552 240.733 274.968 244.745 274.968 244.745C274.968 244.745 273.384 240.708 268.835 241.142C264.644 241.525 262.855 245.691 265.334 249.933C268.272 254.967 274.968 259.439 274.968 259.439C274.968 259.439 281.663 254.967 284.602 249.933C287.081 245.691 285.292 241.525 281.101 241.142Z" fill="black"/>
<path d="M399.836 282.029C395.287 281.62 393.702 285.632 393.702 285.632C393.702 285.632 392.118 281.594 387.569 282.029C383.378 282.412 381.589 286.578 384.068 290.82C387.007 295.854 393.702 300.326 393.702 300.326C393.702 300.326 400.398 295.854 403.337 290.82C405.815 286.578 404.027 282.412 399.836 282.029Z" fill="black"/>
<path d="M705.039 395.673C700.49 395.264 698.905 399.277 698.905 399.277C698.905 399.277 697.321 395.239 692.772 395.673C688.581 396.057 686.792 400.222 689.271 404.464C692.21 409.499 698.905 413.971 698.905 413.971C698.905 413.971 705.601 409.499 708.54 404.464C711.019 400.222 709.23 396.057 705.039 395.673Z" fill="black"/>
<path d="M1071.29 218.959C1067.33 218.601 1065.93 222.128 1065.93 222.128C1065.93 222.128 1064.55 218.601 1060.56 218.959C1056.88 219.291 1055.32 222.946 1057.49 226.651C1060.05 231.047 1065.93 234.957 1065.93 234.957C1065.93 234.957 1071.8 231.047 1074.36 226.651C1076.53 222.92 1074.95 219.291 1071.29 218.959Z" fill="black"/>
<path d="M1282.94 201.097C1275.99 200.458 1273.56 206.617 1273.56 206.617C1273.56 206.617 1271.13 200.458 1264.18 201.097C1257.76 201.685 1255 208.048 1258.81 214.565C1263.31 222.282 1273.56 229.106 1273.56 229.106C1273.56 229.106 1283.83 222.257 1288.3 214.565C1292.11 208.048 1289.35 201.685 1282.94 201.097Z" fill="black"/>
<path d="M1012.18 298.23C1009.44 297.974 1008.5 300.402 1008.5 300.402C1008.5 300.402 1007.55 297.974 1004.82 298.23C1002.29 298.46 1001.22 300.964 1002.7 303.52C1004.46 306.535 1008.5 309.244 1008.5 309.244C1008.5 309.244 1012.54 306.561 1014.3 303.52C1015.78 300.964 1014.71 298.46 1012.18 298.23Z" fill="black"/>
<path d="M1164.1 349.775C1161.11 349.494 1160.09 352.151 1160.09 352.151C1160.09 352.151 1159.04 349.519 1156.08 349.775C1153.32 350.03 1152.14 352.765 1153.78 355.55C1155.7 358.847 1160.09 361.786 1160.09 361.786C1160.09 361.786 1164.49 358.847 1166.4 355.55C1168.04 352.765 1166.86 350.03 1164.1 349.775Z" fill="black"/>
<path d="M25.6544 237.307C25.6544 254.685 11.5736 268.74 -5.77828 268.74C-23.1301 268.74 -37.2109 254.659 -37.2109 237.307C-37.2109 219.955 -5.77828 179.527 -5.77828 179.527C-5.77828 179.527 25.6544 219.93 25.6544 237.307Z" fill="black" stroke="white" stroke-width="1.50804" stroke-linecap="round" stroke-linejoin="round"/>
<path d="M265.749 291.075C265.749 305.794 253.815 317.703 239.121 317.703C224.426 317.703 212.492 305.769 212.492 291.075C212.492 276.38 239.121 242.137 239.121 242.137C239.121 242.137 265.749 276.355 265.749 291.075Z" fill="black" stroke="white" stroke-width="1.50804" stroke-linecap="round" stroke-linejoin="round"/>
<path d="M239.126 307.405C230.156 307.405 222.898 299.892 222.898 290.641Z" fill="black"/>
<path d="M239.126 307.405C230.156 307.405 222.898 299.892 222.898 290.641" stroke="white" stroke-width="1.50804" stroke-linecap="round" stroke-linejoin="round"/>
<path d="M1061.66 266.567C1061.66 281.363 1049.67 293.348 1034.88 293.348C1020.08 293.348 1008.09 281.363 1008.09 266.567C1008.09 251.77 1034.88 217.348 1034.88 217.348C1034.88 217.348 1061.66 251.77 1061.66 266.567Z" fill="black" stroke="white" stroke-width="1.50804" stroke-linecap="round" stroke-linejoin="round"/>
<path d="M1034.87 282.974C1025.85 282.974 1018.57 275.435 1018.57 266.133Z" fill="black"/>
<path d="M1034.87 282.974C1025.85 282.974 1018.57 275.435 1018.57 266.133" stroke="white" stroke-width="1.50804" stroke-linecap="round" stroke-linejoin="round"/>
<path d="M1230.57 385.707C1230.57 403.314 1216.29 417.6 1198.68 417.6C1181.07 417.6 1166.79 403.314 1166.79 385.707C1166.79 368.1 1198.68 327.109 1198.68 327.109C1198.68 327.109 1230.57 368.1 1230.57 385.707Z" fill="black" stroke="white" stroke-width="1.50804" stroke-linecap="round" stroke-linejoin="round"/>
<path d="M1198.68 405.256C1187.95 405.256 1179.26 396.261 1179.26 385.195Z" fill="black"/>
<path d="M1198.68 405.256C1187.95 405.256 1179.26 396.261 1179.26 385.195" stroke="white" stroke-width="1.50804" stroke-linecap="round" stroke-linejoin="round"/>
<path d="M0.839116 353.355V406.127C0.839116 411.289 -3.35189 415.454 -8.48845 415.454H-85.6646C-90.8267 415.454 -94.9922 411.263 -94.9922 406.127V367.283" fill="black"/>
<path d="M0.839116 353.355V406.127C0.839116 411.289 -3.35189 415.454 -8.48845 415.454H-85.6646C-90.8267 415.454 -94.9922 411.263 -94.9922 406.127V367.283" stroke="white" stroke-width="1.50804" stroke-linecap="round" stroke-linejoin="round"/>
<path d="M0.836025 350.926C12.9173 350.926 22.7112 341.132 22.7112 329.051C22.7112 316.97 12.9173 307.176 0.836025 307.176C-11.2453 307.176 -21.0391 316.97 -21.0391 329.051C-21.0391 341.132 -11.2453 350.926 0.836025 350.926Z" fill="black" stroke="white" stroke-width="1.50804" stroke-linecap="round" stroke-linejoin="round"/>
<path d="M11.7735 329.051C11.7735 335.082 6.86697 339.988 0.835983 339.988C-5.195 339.988 -10.1016 335.082 -10.1016 329.051C-10.1016 323.02 -5.195 318.113 0.835983 318.113C6.86697 318.113 11.7735 323.02 11.7735 329.051Z" fill="black"/>
<path d="M526.815 294.551V347.143C526.815 352.024 522.854 356.011 517.948 356.011H444.758C439.877 356.011 435.891 352.05 435.891 347.143V307.737" fill="black"/>
<path d="M526.815 294.551V347.143C526.815 352.024 522.854 356.011 517.948 356.011H444.758C439.877 356.011 435.891 352.05 435.891 347.143V307.737" stroke="white" stroke-width="1.50804" stroke-linecap="round" stroke-linejoin="round"/>
<path d="M526.813 292.251C538.273 292.251 547.564 282.961 547.564 271.501C547.564 260.04 538.273 250.75 526.813 250.75C515.353 250.75 506.062 260.04 506.062 271.501C506.062 282.961 515.353 292.251 526.813 292.251Z" fill="black" stroke="white" stroke-width="1.50804" stroke-linecap="round" stroke-linejoin="round"/>
<path d="M526.813 281.876C532.543 281.876 537.188 277.23 537.188 271.5C537.188 265.77 532.543 261.125 526.813 261.125C521.083 261.125 516.438 265.77 516.438 271.5C516.438 277.23 521.083 281.876 526.813 281.876Z" fill="black"/>
<path d="M476.084 262.888L464.609 251.414C459.805 262.53 448.74 270.35 435.886 270.35C423.031 270.35 411.966 262.556 407.162 251.414L395.688 262.888C402.357 274.081 413.525 282.285 426.686 284.942V307.763H445.06V284.942C458.221 282.31 469.414 274.081 476.058 262.888H476.084Z" fill="black" stroke="white" stroke-width="1.50804" stroke-linecap="round" stroke-linejoin="round"/>
<path d="M471.383 256.831C471.383 256.831 485.131 239.658 475.753 216.863Z" fill="black"/>
<path d="M471.383 256.831C471.383 256.831 485.131 239.658 475.753 216.863" stroke="white" stroke-width="1.50804" stroke-linecap="round" stroke-linejoin="round"/>
<path d="M480.15 209.324C482.322 214.282 480.84 219.75 476.828 221.514C472.816 223.277 467.782 220.696 465.609 215.713C463.437 210.755 464.919 205.312 468.932 203.523C472.944 201.76 477.978 204.341 480.15 209.324Z" fill="black"/>
<path d="M400.395 256.831C400.395 256.831 386.646 239.658 396.025 216.863Z" fill="black"/>
<path d="M400.395 256.831C400.395 256.831 386.646 239.658 396.025 216.863" stroke="white" stroke-width="1.50804" stroke-linecap="round" stroke-linejoin="round"/>
<path d="M391.625 209.324C389.453 214.282 390.935 219.75 394.947 221.514C398.959 223.277 403.994 220.696 406.166 215.713C408.338 210.755 406.856 205.312 402.844 203.523C398.832 201.76 393.797 204.341 391.625 209.324Z" fill="black"/>
<path d="M1038.38 351.055V403.647C1038.38 408.528 1034.42 412.515 1029.51 412.515H956.321C951.44 412.515 947.453 408.553 947.453 403.647V364.241" fill="black"/>
<path d="M1038.38 351.055V403.647C1038.38 408.528 1034.42 412.515 1029.51 412.515H956.321C951.44 412.515 947.453 408.553 947.453 403.647V364.241" stroke="white" stroke-width="1.50804" stroke-linecap="round" stroke-linejoin="round"/>
<path d="M1054.56 341.06C1061.75 332.132 1060.33 319.07 1051.41 311.884C1042.48 304.698 1029.42 306.11 1022.23 315.038C1015.04 323.966 1016.46 337.028 1025.38 344.214C1034.31 351.4 1047.37 349.988 1054.56 341.06Z" fill="black" stroke="white" stroke-width="1.50804" stroke-linecap="round" stroke-linejoin="round"/>
<path d="M1048.75 328C1048.75 333.725 1044.1 338.376 1038.38 338.376C1032.65 338.376 1028 333.725 1028 328C1028 322.276 1032.65 317.625 1038.38 317.625C1044.1 317.625 1048.75 322.276 1048.75 328Z" fill="black"/>
<path d="M987.67 319.392L976.195 307.918C971.391 319.034 960.326 326.854 947.472 326.854C934.617 326.854 923.552 319.06 918.748 307.918L907.273 319.392C913.943 330.585 925.111 338.788 938.272 341.446V364.267H956.646V341.446C969.807 338.814 981 330.585 987.644 319.392H987.67Z" fill="black" stroke="white" stroke-width="1.50804" stroke-linecap="round" stroke-linejoin="round"/>
<path d="M982.969 313.335C982.969 313.335 996.717 296.162 987.339 273.367Z" fill="black"/>
<path d="M982.969 313.335C982.969 313.335 996.717 296.162 987.339 273.367" stroke="white" stroke-width="1.50804" stroke-linecap="round" stroke-linejoin="round"/>
<path d="M991.728 265.828C993.901 270.786 992.418 276.254 988.406 278.018C984.394 279.781 979.36 277.2 977.188 272.217C975.015 267.259 976.498 261.816 980.51 260.027C984.522 258.264 989.556 260.845 991.728 265.828Z" fill="black"/>
<path d="M911.98 313.335C911.98 313.335 898.232 296.162 907.611 273.367Z" fill="black"/>
<path d="M911.98 313.335C911.98 313.335 898.232 296.162 907.611 273.367" stroke="white" stroke-width="1.50804" stroke-linecap="round" stroke-linejoin="round"/>
<path d="M903.211 265.828C901.039 270.786 902.521 276.254 906.533 278.018C910.545 279.781 915.58 277.2 917.752 272.217C919.924 267.259 918.442 261.816 914.43 260.027C910.418 258.264 905.383 260.845 903.211 265.828Z" fill="black"/>
<path d="M1311.51 194.477V238.917C1311.51 243.057 1308.16 246.404 1304.02 246.404H1242.18C1238.04 246.404 1234.69 243.057 1234.69 238.917V205.619" fill="black"/>
<path d="M1311.51 194.477V238.917C1311.51 243.057 1308.16 246.404 1304.02 246.404H1242.18C1238.04 246.404 1234.69 243.057 1234.69 238.917V205.619" stroke="white" stroke-width="1.50804" stroke-linecap="round" stroke-linejoin="round"/>
<path d="M1268.68 167.721L1259 158.035C1254.93 167.439 1245.58 174.033 1234.72 174.033C1223.86 174.033 1214.51 167.439 1210.44 158.035L1200.76 167.721C1206.38 177.176 1215.84 184.127 1226.95 186.35V205.619H1242.46V186.35C1253.61 184.127 1263.04 177.176 1268.66 167.721H1268.68Z" fill="black" stroke="white" stroke-width="1.50804" stroke-linecap="round" stroke-linejoin="round"/>
<path d="M1264.7 162.61C1264.7 162.61 1276.31 148.094 1268.41 128.852Z" fill="black"/>
<path d="M1264.7 162.61C1264.7 162.61 1276.31 148.094 1268.41 128.852" stroke="white" stroke-width="1.50804" stroke-linecap="round" stroke-linejoin="round"/>
<path d="M1272.11 122.462C1273.95 126.653 1272.7 131.253 1269.3 132.761C1265.9 134.243 1261.66 132.071 1259.82 127.88C1257.98 123.689 1259.23 119.089 1262.63 117.581C1266.03 116.073 1270.27 118.271 1272.11 122.462Z" fill="black"/>
<path d="M1204.72 162.61C1204.72 162.61 1193.12 148.094 1201.02 128.852Z" fill="black"/>
<path d="M1204.72 162.61C1204.72 162.61 1193.12 148.094 1201.02 128.852" stroke="white" stroke-width="1.50804" stroke-linecap="round" stroke-linejoin="round"/>
<path d="M1197.31 122.462C1195.47 126.653 1196.72 131.253 1200.12 132.761C1203.52 134.243 1207.76 132.071 1209.6 127.88C1211.44 123.689 1210.19 119.089 1206.79 117.581C1203.39 116.073 1199.15 118.271 1197.31 122.462Z" fill="black"/>
<path d="M48.1489 411.362C40.7635 418.747 28.7781 418.747 21.3672 411.362C13.9818 403.976 13.9818 391.991 21.3672 384.58L60.5175 345.43C67.9029 338.044 79.8882 338.044 87.2991 345.43C94.6845 352.815 94.6845 364.8 87.2991 372.211L48.1489 411.362Z" fill="black" stroke="white" stroke-width="1.50804" stroke-linecap="round" stroke-linejoin="round"/>
<path d="M30.7468 404.871C26.1469 400.271 26.1469 392.809 30.7468 388.184Z" fill="black"/>
<path d="M30.7468 404.871C26.1469 400.271 26.1469 392.809 30.7468 388.184" stroke="white" stroke-width="1.50804" stroke-linecap="round" stroke-linejoin="round"/>
<path d="M41.2422 365.312L67.4105 391.481" stroke="white" stroke-width="1.50804" stroke-linecap="round" stroke-linejoin="round"/>
<path d="M969.788 190.159C969.788 199.308 962.351 206.744 953.202 206.744C944.054 206.744 936.617 199.308 936.617 190.159V141.656C936.617 132.507 944.054 125.07 953.202 125.07C962.351 125.07 969.788 132.507 969.788 141.656V190.159Z" fill="black" stroke="white" stroke-width="1.50804" stroke-linecap="round" stroke-linejoin="round"/>
<path d="M954.996 196.906C949.297 196.906 944.672 192.281 944.672 186.582Z" fill="black"/>
<path d="M954.996 196.906C949.297 196.906 944.672 192.281 944.672 186.582" stroke="white" stroke-width="1.50804" stroke-linecap="round" stroke-linejoin="round"/>
<path d="M936.977 165.906H969.406" stroke="white" stroke-width="1.50804" stroke-linecap="round" stroke-linejoin="round"/>
<path d="M1295.44 258.469C1303.92 258.469 1310.82 265.343 1310.82 273.853C1310.82 282.337 1303.95 289.237 1295.44 289.237H1250.46C1241.98 289.237 1235.08 282.363 1235.08 273.853C1235.08 265.369 1241.95 258.469 1250.46 258.469H1295.44Z" fill="black" stroke="white" stroke-width="1.50804" stroke-linecap="round" stroke-linejoin="round"/>
<path d="M1272.95 288.881V258.828" stroke="white" stroke-width="1.50804" stroke-linecap="round" stroke-linejoin="round"/>
<path d="M1247.26 146C1247.26 153.616 1241.07 159.774 1233.49 159.774C1225.87 159.774 1219.71 153.616 1219.71 146V105.7C1219.71 98.0845 1225.9 91.9258 1233.49 91.9258C1241.1 91.9258 1247.26 98.1101 1247.26 105.7V146Z" fill="black" stroke="white" stroke-width="1.50804" stroke-linecap="round" stroke-linejoin="round"/>
<path d="M1234.97 151.622C1230.22 151.622 1226.38 147.788 1226.38 143.035Z" fill="black"/>
<path d="M1234.97 151.622C1230.22 151.622 1226.38 147.788 1226.38 143.035" stroke="white" stroke-width="1.50804" stroke-linecap="round" stroke-linejoin="round"/>
<path d="M1220.02 125.836H1246.95" stroke="white" stroke-width="1.50804" stroke-linecap="round" stroke-linejoin="round"/>
<path d="M647.639 301.247C641.531 307.355 631.642 307.355 625.534 301.247C619.426 295.14 619.426 285.25 625.534 279.142L657.861 246.815C663.969 240.707 673.858 240.707 679.966 246.815C686.074 252.923 686.074 262.813 679.966 268.92L647.639 301.247Z" fill="black" stroke="white" stroke-width="1.50804" stroke-linecap="round" stroke-linejoin="round"/>
<path d="M633.278 295.88C629.47 292.072 629.47 285.913 633.278 282.105Z" fill="black"/>
<path d="M633.278 295.88C629.47 292.072 629.47 285.913 633.278 282.105" stroke="white" stroke-width="1.50804" stroke-linecap="round" stroke-linejoin="round"/>
<path d="M641.938 263.223L663.531 284.842" stroke="white" stroke-width="1.50804" stroke-linecap="round" stroke-linejoin="round"/>
<path d="M460.956 407.298C451.5 407.298 443.859 399.632 443.859 390.202C443.859 380.746 451.526 373.105 460.956 373.105H510.967C520.422 373.105 528.063 380.772 528.063 390.202C528.063 399.657 520.397 407.298 510.967 407.298H460.956Z" fill="black" stroke="white" stroke-width="1.50804" stroke-linecap="round" stroke-linejoin="round"/>
<path d="M453.984 392.043C453.984 386.166 458.763 381.387 464.641 381.387Z" fill="black"/>
<path d="M453.984 392.043C453.984 386.166 458.763 381.387 464.641 381.387" stroke="white" stroke-width="1.50804" stroke-linecap="round" stroke-linejoin="round"/>
<path d="M485.977 373.465V406.916" stroke="white" stroke-width="1.50804" stroke-linecap="round" stroke-linejoin="round"/>
<path d="M516.31 236.976C507.621 236.976 500.594 229.948 500.594 221.259C500.594 212.571 507.621 205.543 516.31 205.543H562.258C570.947 205.543 577.974 212.571 577.974 221.259C577.974 229.948 570.947 236.976 562.258 236.976H516.31Z" fill="black" stroke="white" stroke-width="1.50804" stroke-linecap="round" stroke-linejoin="round"/>
<path d="M509.898 222.971C509.898 217.554 514.294 213.184 519.686 213.184Z" fill="black"/>
<path d="M509.898 222.971C509.898 217.554 514.294 213.184 519.686 213.184" stroke="white" stroke-width="1.50804" stroke-linecap="round" stroke-linejoin="round"/>
<path d="M539.289 205.902V236.619" stroke="white" stroke-width="1.50804" stroke-linecap="round" stroke-linejoin="round"/>
<path d="M101.114 112.113V164.527C101.114 164.527 128.433 210.858 132.317 216.71C136.227 222.562 133.288 228.9 126.95 228.9H49.3655C43.0278 228.9 40.089 222.562 43.9989 216.71C47.9088 210.858 75.2016 164.527 75.2016 164.527V112.113" fill="black"/>
<path d="M101.114 112.113V164.527C101.114 164.527 128.433 210.858 132.317 216.71C136.227 222.562 133.288 228.9 126.95 228.9H49.3655C43.0278 228.9 40.089 222.562 43.9989 216.71C47.9088 210.858 75.2016 164.527 75.2016 164.527V112.113" stroke="white" stroke-width="1.50804" stroke-linecap="round" stroke-linejoin="round"/>
<path d="M66.9453 112.113H109.367" stroke="white" stroke-width="1.50804" stroke-linecap="round" stroke-linejoin="round"/>
<path d="M53.5312 202.068C53.5312 202.068 63.5232 199.998 74.2308 203.039C91.4038 207.92 110.008 206.668 120.051 196.957" fill="black"/>
<path d="M53.5312 202.068C53.5312 202.068 63.5232 199.998 74.2308 203.039C91.4038 207.92 110.008 206.668 120.051 196.957" stroke="white" stroke-width="1.50804" stroke-linecap="round" stroke-linejoin="round"/>
<path d="M73.6484 178.172H85.6082" stroke="white" stroke-width="1.50804" stroke-linecap="round" stroke-linejoin="round"/>
<path d="M73.6484 188.547H85.6082" stroke="white" stroke-width="1.50804" stroke-linecap="round" stroke-linejoin="round"/>
<path d="M73.6484 198.898H85.6082" stroke="white" stroke-width="1.50804" stroke-linecap="round" stroke-linejoin="round"/>
<path d="M73.6484 209.273H85.6082" stroke="white" stroke-width="1.50804" stroke-linecap="round" stroke-linejoin="round"/>
<path d="M73.6484 219.621H85.6082" stroke="white" stroke-width="1.50804" stroke-linecap="round" stroke-linejoin="round"/>
<path d="M738.213 205.008V250.138C738.213 250.138 761.724 290.029 765.072 295.064C768.42 300.098 765.915 305.567 760.446 305.567H693.646C688.177 305.567 685.672 300.098 689.02 295.064C692.368 290.029 715.878 250.138 715.878 250.138V205.008" fill="black"/>
<path d="M738.213 205.008V250.138C738.213 250.138 761.724 290.029 765.072 295.064C768.42 300.098 765.915 305.567 760.446 305.567H693.646C688.177 305.567 685.672 300.098 689.02 295.064C692.368 290.029 715.878 250.138 715.878 250.138V205.008" stroke="white" stroke-width="1.50804" stroke-linecap="round" stroke-linejoin="round"/>
<path d="M708.797 205.008H745.315" stroke="white" stroke-width="1.50804" stroke-linecap="round" stroke-linejoin="round"/>
<path d="M697.25 282.464C697.25 282.464 705.836 280.675 715.062 283.307C729.833 287.498 745.856 286.425 754.519 278.094" fill="black"/>
<path d="M697.25 282.464C697.25 282.464 705.836 280.675 715.062 283.307C729.833 287.498 745.856 286.425 754.519 278.094" stroke="white" stroke-width="1.50804" stroke-linecap="round" stroke-linejoin="round"/>
<path d="M714.547 261.895H724.846" stroke="white" stroke-width="1.50804" stroke-linecap="round" stroke-linejoin="round"/>
<path d="M714.547 270.812H724.846" stroke="white" stroke-width="1.50804" stroke-linecap="round" stroke-linejoin="round"/>
<path d="M714.547 279.73H724.846" stroke="white" stroke-width="1.50804" stroke-linecap="round" stroke-linejoin="round"/>
<path d="M714.547 288.652H724.846" stroke="white" stroke-width="1.50804" stroke-linecap="round" stroke-linejoin="round"/>
<path d="M714.547 297.57H724.846" stroke="white" stroke-width="1.50804" stroke-linecap="round" stroke-linejoin="round"/>
<path d="M405.737 313.641V359.946C405.737 359.946 429.861 400.86 433.311 406.022C436.761 411.184 434.18 416.781 428.584 416.781H360.045C354.448 416.781 351.867 411.184 355.317 406.022C358.767 400.86 382.891 359.946 382.891 359.946V313.641" fill="black"/>
<path d="M405.737 313.641V359.946C405.737 359.946 429.861 400.86 433.311 406.022C436.761 411.184 434.18 416.781 428.584 416.781H360.045C354.448 416.781 351.867 411.184 355.317 406.022C358.767 400.86 382.891 359.946 382.891 359.946V313.641" stroke="white" stroke-width="1.50804" stroke-linecap="round" stroke-linejoin="round"/>
<path d="M375.555 313.641H413.044" stroke="white" stroke-width="1.50804" stroke-linecap="round" stroke-linejoin="round"/>
<path d="M363.703 393.115C363.703 393.115 372.52 391.275 382.001 393.984C397.155 398.303 413.612 397.204 422.48 388.617" fill="black"/>
<path d="M363.703 393.115C363.703 393.115 372.52 391.275 382.001 393.984C397.155 398.303 413.612 397.204 422.48 388.617" stroke="white" stroke-width="1.50804" stroke-linecap="round" stroke-linejoin="round"/>
<path d="M381.484 371.984H392.013" stroke="white" stroke-width="1.50804" stroke-linecap="round" stroke-linejoin="round"/>
<path d="M381.484 381.133H392.013" stroke="white" stroke-width="1.50804" stroke-linecap="round" stroke-linejoin="round"/>
<path d="M381.484 390.309H392.013" stroke="white" stroke-width="1.50804" stroke-linecap="round" stroke-linejoin="round"/>
<path d="M381.484 399.457H392.013" stroke="white" stroke-width="1.50804" stroke-linecap="round" stroke-linejoin="round"/>
<path d="M381.484 408.605H392.013" stroke="white" stroke-width="1.50804" stroke-linecap="round" stroke-linejoin="round"/>
<path d="M87.7891 390.918V409.036" stroke="white" stroke-width="3.01609" stroke-linecap="round" stroke-linejoin="round"/>
<path d="M78.7109 399.988H96.855" stroke="white" stroke-width="3.01609" stroke-linecap="round" stroke-linejoin="round"/>
<path d="M355.266 339.809V357.927" stroke="white" stroke-width="3.01609" stroke-linecap="round" stroke-linejoin="round"/>
<path d="M346.195 348.879H364.339" stroke="white" stroke-width="3.01609" stroke-linecap="round" stroke-linejoin="round"/>
<path d="M823.711 295.191V313.335" stroke="white" stroke-width="3.01609" stroke-linecap="round" stroke-linejoin="round"/>
<path d="M814.641 304.262H832.785" stroke="white" stroke-width="3.01609" stroke-linecap="round" stroke-linejoin="round"/>
<path d="M999.172 328.59V344.434" stroke="white" stroke-width="3.01609" stroke-linecap="round" stroke-linejoin="round"/>
<path d="M991.258 336.512H1007.13" stroke="white" stroke-width="3.01609" stroke-linecap="round" stroke-linejoin="round"/>
<path d="M1245.78 396.207V412.077" stroke="white" stroke-width="3.01609" stroke-linecap="round" stroke-linejoin="round"/>
<path d="M1237.86 404.156H1253.73" stroke="white" stroke-width="3.01609" stroke-linecap="round" stroke-linejoin="round"/>
<path d="M926.32 385.91V404.029" stroke="white" stroke-width="3.01609" stroke-linecap="round" stroke-linejoin="round"/>
<path d="M917.25 394.98H935.394" stroke="white" stroke-width="3.01609" stroke-linecap="round" stroke-linejoin="round"/>
<path d="M691.953 209.684V231.226" stroke="white" stroke-width="3.01609" stroke-linecap="round" stroke-linejoin="round"/>
<path d="M681.195 220.469H702.713" stroke="white" stroke-width="3.01609" stroke-linecap="round" stroke-linejoin="round"/>
<path d="M632.547 390.918V409.036" stroke="white" stroke-width="3.01609" stroke-linecap="round" stroke-linejoin="round"/>
<path d="M623.469 399.988H641.613" stroke="white" stroke-width="3.01609" stroke-linecap="round" stroke-linejoin="round"/>
</g>
<rect x="-472.734" y="227.492" width="2225.73" height="192.506" fill="url(#paint0_linear_2146_15317)"/>
<defs>
<linearGradient id="paint0_linear_2146_15317" x1="640.129" y1="419.998" x2="640.129" y2="227.492" gradientUnits="userSpaceOnUse">
<stop stop-color="#E9E3ED"/>
<stop offset="0.836538" stop-color="white" stop-opacity="0"/>
</linearGradient>
</defs>
</svg>
