<svg width="30" height="21" viewBox="0 0 30 21" fill="none" xmlns="http://www.w3.org/2000/svg">
<g clip-path="url(#clip0_661_141529)">
<path d="M19.7341 10.6864C17.1204 9.29121 14.6179 8.00858 12.0598 6.66943V14.6806C14.7517 13.2189 17.589 11.8802 19.7452 10.6864H19.7341Z" fill="white"/>
<path d="M19.7341 10.6864C17.1204 9.29121 12.0598 6.66943 12.0598 6.66943L18.807 11.1993C18.807 11.1993 17.5779 11.8802 19.7341 10.6864Z" fill="#E8E0E0"/>
<path d="M12.5529 20.9516C7.12421 20.8518 5.27004 20.762 4.13036 20.5274C3.35928 20.3716 2.68922 20.0256 2.19791 19.5237C1.81819 19.1439 1.51621 18.5644 1.28193 17.7604C1.08096 17.0905 1.00269 16.5332 0.891105 15.1719C0.720284 12.0995 0.679562 9.5876 0.891105 6.78093C1.06563 5.231 1.15024 3.39106 2.3095 2.31763C2.85687 1.81525 3.49361 1.49195 4.20863 1.3583C5.32557 1.14646 10.0842 0.979004 15.0105 0.979004C19.9257 0.979004 24.695 1.14646 25.813 1.3583C26.7062 1.52576 27.5439 2.02761 28.0358 2.67473C29.0935 4.33665 29.112 6.40322 29.2193 8.01971C29.2638 8.78992 29.2638 13.1634 29.2193 13.9336C29.0522 16.4883 28.9179 17.3922 28.5382 18.3293C28.3034 18.921 28.1029 19.2332 27.756 19.5792C27.2119 20.1117 26.5182 20.4658 25.7675 20.5945C21.0696 20.9474 17.0805 21.024 12.5529 20.9516ZM19.747 10.6864C17.1334 9.29124 14.6308 7.99753 12.0727 6.65837V14.67C14.7646 13.2083 17.6025 11.8692 19.7581 10.6753L19.747 10.6864Z" fill="#CD201F"/>
</g>
<defs>
<clipPath id="clip0_661_141529">
<rect width="28.5054" height="19.9998" fill="white" transform="translate(0.747314 0.978027)"/>
</clipPath>
</defs>
</svg>
